<svg width="180" height="180" viewBox="0 0 180 180" fill="none" xmlns="http://www.w3.org/2000/svg">
<rect width="180" height="180" fill="white"/>
<path d="M116.03 141.268H47.322C45.9741 141.268 44.6614 140.837 43.5753 140.038C42.4893 139.24 41.6868 138.115 41.2848 136.829L27.378 92.259C27.2126 91.7285 27.1743 91.1664 27.2662 90.6183C27.3581 90.0702 27.5775 89.5514 27.9069 89.1037C28.2363 88.6561 28.6663 88.2922 29.1623 88.0414C29.6583 87.7906 30.2062 87.66 30.762 87.66H99.3024L116.03 141.268Z" fill="#F0F0F0"/>
<path d="M99.3024 87.6601L116.03 141.268H47.322C45.9741 141.268 44.6614 140.837 43.5754 140.039C42.4893 139.24 41.6868 138.116 41.2848 136.829L27.378 92.2591C27.2126 91.7286 27.1743 91.1665 27.2662 90.6184C27.3581 90.0703 27.5776 89.5515 27.9069 89.1038C28.2363 88.6562 28.6663 88.2923 29.1623 88.0415C29.6583 87.7907 30.2063 87.6601 30.762 87.6601H99.3024ZM99.3024 86.4001H30.762C30.0087 86.4005 29.2661 86.5779 28.5939 86.9181C27.9218 87.2582 27.3391 87.7516 26.8927 88.3584C26.4464 88.9653 26.1489 89.6685 26.0244 90.4114C25.8998 91.1543 25.9516 91.9161 26.1756 92.6353L40.0824 137.203C40.5592 138.749 41.5202 140.102 42.8236 141.06C44.1271 142.019 45.704 142.533 47.322 142.528H116.03C116.227 142.528 116.422 142.481 116.598 142.392C116.774 142.303 116.927 142.173 117.044 142.014C117.161 141.855 117.239 141.671 117.272 141.476C117.304 141.282 117.291 141.082 117.232 140.893L100.505 87.2839C100.425 87.0278 100.265 86.8039 100.049 86.6449C99.8322 86.4859 99.5708 86.4002 99.3024 86.4001Z" fill="#4C3133"/>
<path d="M116.908 141.268H49.86C48.889 141.268 47.9433 140.958 47.161 140.383C46.3786 139.808 45.8006 138.998 45.5112 138.071L30.4398 89.7984C30.3631 89.5518 30.3454 89.2905 30.3882 89.0357C30.431 88.781 30.533 88.5398 30.6861 88.3318C30.8392 88.1237 31.039 87.9545 31.2695 87.8378C31.5 87.7211 31.7547 87.6602 32.013 87.66H100.4C101.192 87.6602 101.963 87.9134 102.6 88.3826C103.238 88.8518 103.709 89.5125 103.945 90.2682L118.98 138.452C119.081 138.777 119.105 139.121 119.049 139.457C118.992 139.793 118.858 140.11 118.656 140.384C118.455 140.658 118.191 140.881 117.888 141.035C117.584 141.188 117.248 141.268 116.908 141.268Z" fill="white"/>
<path d="M100.4 87.66C101.192 87.6602 101.963 87.9134 102.6 88.3826C103.238 88.8518 103.709 89.5125 103.945 90.2682L118.98 138.452C119.081 138.777 119.105 139.121 119.049 139.457C118.993 139.793 118.858 140.11 118.656 140.384C118.455 140.658 118.191 140.881 117.888 141.035C117.584 141.188 117.248 141.268 116.908 141.268H49.86C48.889 141.268 47.9433 140.958 47.161 140.383C46.3786 139.808 45.8006 138.998 45.5112 138.071L30.4398 89.7984C30.3631 89.5518 30.3454 89.2905 30.3882 89.0358C30.431 88.781 30.5331 88.5399 30.6861 88.3318C30.8392 88.1237 31.0391 87.9545 31.2695 87.8378C31.5 87.7211 31.7547 87.6602 32.013 87.66H100.4ZM100.4 86.4H32.013C31.5564 86.4 31.1062 86.5074 30.6988 86.7137C30.2914 86.9199 29.9383 87.2192 29.6681 87.5872C29.3978 87.9553 29.218 88.3818 29.1432 88.8322C29.0684 89.2827 29.1007 89.7444 29.2374 90.18L44.2998 138.451C44.6667 139.637 45.4052 140.673 46.4065 141.408C47.4077 142.142 48.6185 142.534 49.86 142.528H116.908C117.446 142.528 117.977 142.401 118.457 142.159C118.937 141.916 119.353 141.564 119.672 141.13C119.99 140.697 120.203 140.195 120.291 139.664C120.38 139.134 120.343 138.59 120.182 138.076L105.147 89.892C104.834 88.8783 104.204 87.9918 103.35 87.3631C102.495 86.7345 101.461 86.3969 100.4 86.4Z" fill="#4C3133"/>
<path d="M69.102 118.303H46.602C45.8604 118.303 45.0738 117.702 44.847 116.959L43.6842 113.153C43.4574 112.412 43.875 111.811 44.6166 111.811H67.1166C67.8582 111.811 68.643 112.412 68.8698 113.153L70.0344 116.959C70.2612 117.702 69.84 118.303 69.102 118.303Z" fill="#F0F0F0"/>
<path d="M111.175 135.853H49.5C47.7738 135.853 46.0116 134.51 45.4878 132.793L33.9048 94.8942C33.633 93.9942 33.75 93.1212 34.2288 92.475C34.4709 92.1603 34.7848 91.9082 35.1443 91.7397C35.5038 91.5712 35.8984 91.4913 36.2952 91.5066H98.0352C99.7398 91.5066 101.48 92.8332 101.995 94.527L113.582 132.428C113.859 133.328 113.74 134.228 113.256 134.874C113.012 135.191 112.696 135.445 112.334 135.615C111.972 135.785 111.575 135.867 111.175 135.853ZM36.2952 92.7666C36.0957 92.7537 35.896 92.7884 35.7126 92.8679C35.5292 92.9474 35.3673 93.0694 35.2404 93.2238C34.9992 93.5496 34.9542 94.0122 35.1108 94.527L46.6974 132.428C47.0574 133.601 48.3426 134.588 49.5054 134.588H111.175C111.38 134.601 111.584 134.565 111.772 134.483C111.96 134.402 112.125 134.277 112.255 134.118C112.502 133.785 112.549 133.313 112.388 132.79L100.8 94.8942C100.44 93.7404 99.18 92.7666 98.0406 92.7666H36.2952Z" fill="#4C3133"/>
<path d="M92.43 87.66H85.3308C85.1745 89.1214 84.9177 90.5702 84.5622 91.9962C82.6686 99.3654 77.3172 105.584 70.8066 109.69C64.3842 113.738 58.3362 115.538 50.841 116.725C51.3326 118.846 52.208 120.859 53.424 122.665H92.43V87.66Z" fill="#E2E2E0"/>
<path d="M102.298 98.2801H35.406C35.2712 98.2803 35.1398 98.2372 35.0313 98.1572C34.9227 98.0771 34.8427 97.9644 34.803 97.8355L33.795 94.5397C33.6702 94.1821 33.6316 93.8001 33.6823 93.4248C33.7329 93.0495 33.8715 92.6914 34.0866 92.3797C34.3031 92.098 34.5839 91.8722 34.9055 91.7213C35.2271 91.5703 35.5802 91.4986 35.9352 91.5121H98.3952C99.8982 91.5121 101.432 92.6803 101.889 94.1707L102.895 97.4665C102.924 97.5605 102.93 97.66 102.913 97.7569C102.897 97.8538 102.858 97.9454 102.799 98.0245C102.741 98.1036 102.665 98.1679 102.577 98.2123C102.489 98.2566 102.392 98.2799 102.294 98.2801H102.298ZM35.8776 97.0201H101.452L100.692 94.5397C100.399 93.5803 99.351 92.7721 98.4042 92.7721H35.9442C35.7862 92.7614 35.6278 92.7885 35.4823 92.8511C35.3368 92.9137 35.2082 93.01 35.1072 93.1321C34.9182 93.3895 34.8822 93.7585 35.01 94.1725L35.8776 97.0201Z" fill="#4C3133"/>
<path d="M43.8871 95.6652C44.1442 95.3658 44.0236 94.8406 43.6178 94.4922C43.2121 94.1438 42.6747 94.1041 42.4176 94.4035C42.1605 94.7029 42.281 95.2281 42.6868 95.5765C43.0926 95.9249 43.63 95.9646 43.8871 95.6652Z" fill="#4C3133"/>
<path d="M47.5495 95.6635C47.8066 95.3641 47.686 94.8389 47.2803 94.4905C46.8745 94.1421 46.3371 94.1024 46.08 94.4018C45.8229 94.7012 45.9435 95.2264 46.3492 95.5748C46.755 95.9232 47.2924 95.9629 47.5495 95.6635Z" fill="#4C3133"/>
<path d="M67.9026 90.0412C68.1597 89.7418 68.0391 89.2166 67.6333 88.8682C67.2276 88.5198 66.6902 88.4801 66.4331 88.7795C66.176 89.0789 66.2965 89.6041 66.7023 89.9525C67.1081 90.3009 67.6455 90.3406 67.9026 90.0412Z" fill="#4C3133"/>
<path d="M39.8919 95.6663C40.149 95.3669 40.0285 94.8417 39.6227 94.4933C39.2169 94.1449 38.6795 94.1052 38.4224 94.4046C38.1653 94.704 38.2859 95.2292 38.6916 95.5776C39.0974 95.926 39.6348 95.9657 39.8919 95.6663Z" fill="#4C3133"/>
<path d="M66.0942 108.466H43.5942C42.8526 108.466 42.0678 107.865 41.841 107.122L40.68 103.32C40.4532 102.578 40.8708 101.977 41.6124 101.977H64.1124C64.854 101.977 65.6406 102.578 65.8674 103.32L67.0302 107.125C67.2534 107.865 66.8358 108.466 66.0942 108.466Z" fill="#F0F0F0"/>
<path d="M72.1098 128.14H49.6098C48.8682 128.14 48.0816 127.539 47.8548 126.796L46.692 122.991C46.4652 122.249 46.8828 121.648 47.6244 121.648H70.1244C70.866 121.648 71.6508 122.249 71.8776 122.991L73.0422 126.796C73.269 127.539 72.8514 128.14 72.1098 128.14Z" fill="#F0F0F0"/>
<path d="M86.5916 127.967C87.8072 126.552 87.2359 124.067 85.3156 122.419C83.3953 120.77 80.8532 120.581 79.6376 121.997C78.4221 123.412 78.9934 125.897 80.9137 127.545C82.834 129.194 85.3761 129.383 86.5916 127.967Z" fill="#F0F0F0"/>
<path d="M47.3058 141.268H170.444C170.444 141.691 170.361 142.111 170.199 142.502C170.037 142.893 169.8 143.249 169.5 143.548C169.201 143.848 168.845 144.086 168.454 144.248C168.063 144.41 167.644 144.493 167.22 144.493H50.5314C50.1081 144.493 49.6889 144.41 49.2978 144.248C48.9066 144.086 48.5512 143.848 48.2519 143.549C47.9525 143.25 47.7151 142.894 47.553 142.503C47.391 142.112 47.3076 141.693 47.3076 141.27L47.3058 141.268Z" fill="#F0F0F0"/>
<path d="M170.444 141.268C170.444 141.691 170.361 142.111 170.199 142.502C170.037 142.893 169.8 143.249 169.5 143.548C169.201 143.848 168.845 144.086 168.454 144.248C168.063 144.41 167.644 144.493 167.22 144.493H50.5314C49.676 144.493 48.8555 144.153 48.2506 143.549C47.6457 142.944 47.3058 142.123 47.3058 141.268H170.444ZM170.444 140.008H47.3058C46.9717 140.008 46.6512 140.14 46.4149 140.377C46.1786 140.613 46.0458 140.934 46.0458 141.268C46.0496 142.456 46.5234 143.595 47.3638 144.435C48.2042 145.276 49.343 145.749 50.5314 145.753H167.22C168.408 145.749 169.546 145.275 170.386 144.435C171.226 143.594 171.7 142.456 171.704 141.268C171.704 140.934 171.571 140.613 171.335 140.377C171.099 140.14 170.778 140.008 170.444 140.008Z" fill="#4C3133"/>
<path d="M52.2558 142.96C51.6743 142.96 51.1037 142.802 50.6044 142.504C50.105 142.207 49.6954 141.779 49.419 141.268H47.3058C47.3058 142.123 47.6456 142.944 48.2505 143.549C48.8555 144.153 49.6759 144.493 50.5314 144.493H167.22C167.811 144.493 168.391 144.33 168.895 144.022C169.4 143.715 169.811 143.274 170.082 142.749C169.719 142.887 169.334 142.958 168.946 142.96H52.2558Z" fill="#E2E2E0"/>
<path d="M105.25 141.268C105.25 141.268 105.516 143.514 102.661 145.26L105.25 141.268Z" fill="white"/>
<path d="M102.661 145.89C102.524 145.891 102.39 145.846 102.28 145.763C102.17 145.68 102.09 145.564 102.053 145.431C102.016 145.299 102.023 145.158 102.073 145.03C102.123 144.901 102.214 144.793 102.332 144.722C104.774 143.23 104.63 141.413 104.623 141.336C104.604 141.169 104.653 141.001 104.757 140.87C104.862 140.738 105.015 140.654 105.182 140.635C105.349 140.616 105.517 140.664 105.648 140.769C105.78 140.874 105.864 141.027 105.883 141.194C105.896 141.302 106.162 143.863 103.003 145.798C102.9 145.86 102.782 145.892 102.661 145.89Z" fill="#4C3133"/>
<path d="M157.696 114.795C158.672 114.759 159.604 114.41 160.517 114.064C161.519 113.684 162.522 113.303 163.494 112.847C164.326 112.457 166.685 111.073 166.954 110.675C167.222 110.277 167.252 109.679 166.9 109.354C166.36 108.853 165.386 109.296 164.785 108.866C163.975 108.286 164.729 107.23 165.402 106.934C166.405 106.493 167.562 106.74 168.561 106.285C169.297 105.946 169.853 104.996 169.407 104.321C169.056 103.792 168.282 103.7 167.89 103.201C167.285 102.431 167.989 101.261 168.878 100.849C169.767 100.436 170.806 100.433 171.68 99.9935C172.555 99.5543 173.182 98.3123 172.503 97.6085C171.619 96.6905 169.803 97.8119 168.883 96.9227C168.163 96.2171 168.728 94.9967 169.385 94.2227C170.042 93.4487 170.825 92.4695 170.401 91.5515C169.997 90.6785 168.734 90.5885 167.881 91.0115C167.027 91.4345 166.387 92.2175 165.584 92.7467C164.781 93.2759 163.604 93.4973 162.922 92.8187C162.353 92.2517 162.382 91.3121 161.932 90.6443C161.116 89.4221 159.071 89.7443 158.152 90.8999C157.232 92.0555 157.153 93.6359 157.144 95.1047C157.144 96.0893 156.802 97.4303 155.819 97.3619C155.135 97.3169 154.739 96.5501 154.123 96.2531C152.957 95.6951 151.673 97.1531 151.783 98.4347C151.893 99.7163 152.793 100.775 153.484 101.873C154.858 104.044 155.284 106.688 155.284 109.289C155.282 111.676 154.033 114.926 157.696 114.795Z" fill="#FFD900"/>
<path d="M157.486 115.429C156.436 115.429 155.675 115.16 155.16 114.611C154.26 113.659 154.411 112.183 154.553 110.756C154.604 110.241 154.652 109.753 154.652 109.305C154.652 106.349 154.093 104.033 152.948 102.224C152.815 102.013 152.674 101.804 152.532 101.596C151.904 100.663 151.252 99.7001 151.153 98.5013C151.128 97.9976 151.23 97.4957 151.451 97.042C151.671 96.5884 152.002 96.1975 152.413 95.9057C152.696 95.6948 153.03 95.5643 153.38 95.5282C153.731 95.492 154.085 95.5516 154.404 95.7005C154.712 95.8634 154.993 96.0729 155.237 96.3215C155.479 96.5429 155.687 96.7355 155.871 96.7481C155.911 96.7529 155.952 96.7482 155.99 96.7345C156.028 96.7207 156.063 96.6983 156.091 96.6689C156.341 96.4367 156.519 95.7977 156.523 95.1155C156.532 93.5819 156.629 91.8359 157.667 90.5237C158.008 90.1135 158.437 89.7865 158.923 89.5681C159.409 89.3497 159.939 89.2456 160.472 89.2637C160.862 89.2669 161.246 89.3642 161.591 89.5476C161.936 89.7309 162.231 89.9948 162.452 90.3167C162.669 90.6733 162.833 91.0604 162.936 91.4651C163.053 91.8521 163.156 92.1851 163.363 92.3939C163.786 92.8151 164.642 92.6297 165.233 92.2409C165.544 92.0257 165.841 91.7906 166.122 91.5371C166.566 91.1206 167.061 90.762 167.594 90.4697C168.289 90.1197 169.094 90.0551 169.835 90.2897C170.084 90.3704 170.314 90.5013 170.51 90.6744C170.707 90.8475 170.865 91.059 170.977 91.2959C171.59 92.6261 170.471 93.9347 169.868 94.6385C169.328 95.2631 168.968 96.1163 169.328 96.4709C169.574 96.7139 170.095 96.6707 170.644 96.6275C171.385 96.5681 172.309 96.4943 172.96 97.1675C173.148 97.3644 173.285 97.6033 173.361 97.8642C173.436 98.1251 173.449 98.4004 173.396 98.6669C173.313 99.0676 173.142 99.4447 172.895 99.7708C172.648 100.097 172.332 100.364 171.968 100.552C171.46 100.785 170.924 100.954 170.374 101.056C169.953 101.133 169.542 101.253 169.146 101.416C168.95 101.509 168.774 101.641 168.632 101.806C168.489 101.97 168.383 102.162 168.318 102.37C168.293 102.442 168.287 102.52 168.299 102.596C168.311 102.672 168.342 102.744 168.388 102.805C168.545 102.957 168.728 103.079 168.928 103.165C169.328 103.339 169.676 103.615 169.936 103.964C170.069 104.168 170.155 104.398 170.188 104.638C170.222 104.879 170.202 105.124 170.131 105.356C170.03 105.682 169.863 105.983 169.638 106.24C169.414 106.497 169.139 106.704 168.829 106.848C168.228 107.123 167.618 107.181 167.029 107.235C166.563 107.252 166.102 107.342 165.663 107.501C165.388 107.622 165.096 107.966 165.073 108.196C165.073 108.239 165.073 108.277 165.159 108.346C165.287 108.437 165.566 108.441 165.834 108.445C166.297 108.445 166.874 108.459 167.333 108.882C167.893 109.399 167.956 110.322 167.483 111.019C167.06 111.647 164.288 113.164 163.768 113.407C162.736 113.899 161.676 114.3 160.74 114.66C159.84 115.004 158.809 115.393 157.72 115.43L157.486 115.429ZM153.587 96.7751C153.418 96.7816 153.255 96.8401 153.121 96.9425C152.891 97.1078 152.705 97.3268 152.58 97.5803C152.454 97.8338 152.393 98.1142 152.401 98.3969C152.474 99.2681 153.005 100.057 153.569 100.89C153.718 101.11 153.866 101.329 154.006 101.551C155.282 103.567 155.903 106.103 155.905 109.303C155.905 109.814 155.851 110.356 155.799 110.88C155.686 112.028 155.569 113.22 156.071 113.749C156.355 114.053 156.897 114.192 157.667 114.165C158.549 114.133 159.433 113.805 160.286 113.476C161.201 113.13 162.238 112.738 163.219 112.277C164.086 111.868 166.135 110.635 166.432 110.309C166.545 110.129 166.547 109.892 166.464 109.818C166.381 109.744 166.077 109.717 165.802 109.714C165.382 109.714 164.86 109.699 164.412 109.379C164.201 109.238 164.032 109.042 163.925 108.812C163.817 108.581 163.775 108.326 163.804 108.074C163.885 107.305 164.552 106.616 165.141 106.358C165.703 106.142 166.296 106.021 166.898 105.998C167.375 105.983 167.846 105.889 168.293 105.719C168.436 105.651 168.564 105.554 168.669 105.436C168.774 105.317 168.854 105.178 168.905 105.028C168.928 104.972 168.937 104.911 168.931 104.85C168.926 104.789 168.906 104.731 168.874 104.679C168.724 104.514 168.54 104.384 168.334 104.297C167.976 104.131 167.657 103.89 167.4 103.59C167.237 103.379 167.124 103.133 167.071 102.871C167.018 102.61 167.026 102.34 167.094 102.082C167.203 101.689 167.395 101.325 167.658 101.014C167.922 100.703 168.249 100.453 168.619 100.282C169.095 100.078 169.591 99.9281 170.1 99.8333C170.549 99.7528 170.986 99.6186 171.403 99.4337C171.591 99.3346 171.755 99.1967 171.884 99.029C172.014 98.8614 172.107 98.668 172.156 98.4617C172.175 98.3899 172.176 98.3141 172.159 98.2417C172.141 98.1693 172.105 98.1025 172.055 98.0477C171.833 97.8191 171.412 97.8335 170.746 97.8875C170.015 97.9451 169.106 98.0189 168.449 97.3781C167.479 96.4313 167.983 94.9103 168.912 93.8231C169.492 93.1463 170.087 92.3831 169.834 91.8269C169.792 91.7439 169.734 91.6703 169.663 91.6109C169.591 91.5514 169.509 91.5073 169.42 91.4813C169.001 91.3578 168.55 91.3977 168.16 91.5929C167.72 91.8418 167.312 92.1441 166.946 92.4929C166.624 92.7834 166.283 93.0522 165.926 93.2975C164.927 93.9563 163.42 94.2335 162.473 93.2975C162.041 92.8673 161.876 92.3219 161.73 91.8413C161.66 91.5558 161.55 91.2814 161.404 91.0259C161.291 90.8705 161.142 90.7446 160.969 90.6588C160.797 90.5729 160.607 90.5297 160.414 90.5327C160.08 90.524 159.748 90.5904 159.442 90.7272C159.137 90.8639 158.866 91.0675 158.65 91.3229C157.86 92.3219 157.786 93.7565 157.777 95.1407C157.777 95.5403 157.709 96.8993 156.944 97.6103C156.789 97.7563 156.606 97.8685 156.406 97.9398C156.206 98.0111 155.993 98.0399 155.781 98.0243C155.153 97.9811 154.723 97.5833 154.377 97.2629C154.222 97.1037 154.047 96.9662 153.855 96.8543C153.773 96.8072 153.681 96.78 153.587 96.7751Z" fill="#4C3133"/>
<path d="M143.838 122.58L146.673 139.903H160.74L163.955 122.609C164.092 121.871 163.609 121.169 162.963 121.169H144.835C144.198 121.167 143.719 121.842 143.838 122.58Z" fill="white"/>
<path d="M162.965 121.167C163.613 121.167 164.093 121.862 163.957 122.607L160.74 139.894H146.673L143.838 122.58C143.719 121.851 144.198 121.176 144.835 121.176H162.965V121.167ZM162.965 119.916H144.835C144.514 119.918 144.197 119.99 143.907 120.127C143.617 120.264 143.36 120.463 143.154 120.71C142.916 120.994 142.743 121.327 142.646 121.685C142.549 122.043 142.532 122.418 142.594 122.783L145.429 140.107C145.477 140.402 145.629 140.67 145.857 140.863C146.085 141.057 146.374 141.163 146.673 141.163H160.74C161.035 141.163 161.32 141.06 161.547 140.872C161.773 140.684 161.927 140.422 161.98 140.132L165.193 122.837C165.264 122.468 165.253 122.087 165.159 121.723C165.066 121.359 164.893 121.019 164.653 120.73C164.448 120.477 164.189 120.273 163.896 120.133C163.602 119.992 163.281 119.918 162.956 119.916H162.965Z" fill="#4C3133"/>
<path d="M151.931 137.374C151.015 137.374 150.129 137.048 149.432 136.454C148.734 135.86 148.271 135.038 148.124 134.134L146.002 121.162H144.835C144.198 121.162 143.719 121.837 143.838 122.566L146.673 139.889H160.74L161.291 136.931C160.742 137.218 160.133 137.368 159.514 137.369L151.931 137.374Z" fill="#F0F0F0"/>
<path d="M155.893 120.697C155.846 120.697 155.8 120.692 155.754 120.683C155.673 120.664 155.597 120.63 155.529 120.583C155.462 120.535 155.404 120.474 155.36 120.404C155.316 120.334 155.286 120.256 155.272 120.174C155.258 120.093 155.26 120.009 155.279 119.929C156.118 116.206 156.985 112.356 158.413 108.718C160.033 104.6 162.182 101.295 164.815 98.8938C164.939 98.7811 165.102 98.7222 165.269 98.7299C165.436 98.7377 165.594 98.8115 165.706 98.9352C165.819 99.0588 165.878 99.2221 165.87 99.3892C165.862 99.5563 165.788 99.7135 165.665 99.8262C163.175 102.094 161.131 105.241 159.584 109.186C158.193 112.734 157.336 116.536 156.508 120.213C156.475 120.351 156.396 120.474 156.285 120.562C156.173 120.65 156.035 120.697 155.893 120.697Z" fill="#4C3133"/>
<path d="M156.173 109.132C154.903 110.943 152.599 113.778 150.156 113.83C148.16 113.873 146.407 112.03 145.093 110.713C143.021 108.657 141.379 106.209 140.263 103.513C140.177 103.3 140.094 103.046 140.215 102.852C140.463 102.449 141.059 102.803 141.52 102.911C142.258 103.091 142.981 102.411 143.14 101.669C143.298 100.928 143.071 100.163 142.841 99.4392L140.346 91.5948C140.121 90.8748 139.892 90.1224 140.098 89.406C140.303 88.6896 141.133 88.1028 141.8 88.4376C142.636 88.8552 142.823 90.405 143.746 90.2574C144.466 90.1422 144.497 89.1144 144.355 88.3908C143.542 84.2506 143.653 79.9821 144.68 75.8898C144.821 75.3336 145.082 74.6838 145.647 74.5938C146.353 74.4786 146.813 75.3372 146.871 76.0482C146.929 76.7592 146.851 77.5782 147.357 78.0822C147.924 78.6492 148.941 78.4422 149.517 77.8878C150.093 77.3334 150.358 76.536 150.656 75.7908C151.223 74.3686 151.98 73.0293 152.905 71.8092C153.536 70.9758 154.55 70.1226 155.509 70.5366C156.38 70.9128 156.544 72.063 156.51 73.0098C156.427 75.33 155.912 77.6088 155.401 79.8732L158.962 76.9356C159.322 76.6386 159.743 76.3236 160.204 76.3866C160.924 76.4856 161.195 77.3838 161.206 78.1092C161.217 79.2878 160.972 80.4547 160.487 81.5291C160.003 82.6035 159.291 83.5598 158.4 84.3318C157.86 84.7944 157.237 85.1976 156.847 85.797C156.456 86.3964 156.379 87.2856 156.906 87.777L159.786 86.0616C160.209 85.8096 160.713 85.5504 161.168 85.7358C161.624 85.9212 161.793 86.436 161.737 86.895C161.681 87.354 161.433 87.7626 161.197 88.155L156.013 96.48C155.895 96.6375 155.821 96.824 155.799 97.02C155.786 97.5834 156.584 97.7976 157.104 97.5834C157.624 97.3692 158.049 96.9264 158.602 96.8184C159.52 96.6384 160.373 97.5132 160.528 98.4384C160.682 99.3636 160.348 100.285 160.007 101.158C158.94 103.918 157.873 106.711 156.173 109.132Z" fill="#FFD900"/>
<path d="M150.088 114.46C147.953 114.46 146.156 112.66 144.839 111.35L144.648 111.159C142.519 109.041 140.83 106.522 139.68 103.748C139.597 103.547 139.376 103.01 139.68 102.519C140.132 101.785 140.972 102.071 141.377 102.208C141.484 102.244 141.584 102.278 141.665 102.296C141.734 102.309 141.804 102.308 141.871 102.294C141.939 102.279 142.003 102.25 142.06 102.209C142.297 102.051 142.467 101.809 142.533 101.531C142.666 100.935 142.445 100.24 142.25 99.6282L139.756 91.7838C139.536 91.0962 139.237 90.1548 139.5 89.2314C139.59 88.9307 139.743 88.6528 139.95 88.4165C140.156 88.1802 140.411 87.9909 140.697 87.8616C140.915 87.7596 141.154 87.7077 141.395 87.7096C141.636 87.7114 141.873 87.767 142.09 87.8724C142.612 88.1316 142.911 88.6194 143.17 89.0496C143.325 89.3034 143.53 89.6526 143.651 89.6346C143.672 89.6346 143.676 89.6346 143.692 89.6076C143.795 89.46 143.843 89.037 143.741 88.5114C142.912 84.2787 143.025 79.9152 144.074 75.7314C144.34 74.6766 144.837 74.0826 145.55 73.9674C145.745 73.9351 145.946 73.9449 146.137 73.9962C146.329 74.0474 146.507 74.1388 146.66 74.2644C147.215 74.7 147.458 75.4434 147.503 75.996C147.514 76.1364 147.519 76.2804 147.526 76.4262C147.548 76.9248 147.568 77.3964 147.805 77.634C148.102 77.9292 148.736 77.7672 149.083 77.4324C149.494 77.0346 149.726 76.446 149.969 75.8214L150.075 75.5532C150.666 74.0785 151.453 72.6902 152.415 71.4258C153.459 70.047 154.715 69.498 155.772 69.9552C156.442 70.245 157.225 71.0136 157.153 73.0296C157.063 74.7769 156.822 76.5133 156.433 78.219L158.593 76.446C158.927 76.1706 159.554 75.6558 160.321 75.7602C161.24 75.8844 161.847 76.8024 161.867 78.1002C161.88 79.373 161.615 80.6332 161.089 81.7927C160.564 82.9521 159.792 83.9828 158.827 84.8124C158.69 84.9276 158.551 85.0392 158.413 85.1508C158.023 85.4258 157.679 85.7605 157.394 86.1426C157.251 86.3631 157.177 86.6213 157.181 86.8842L159.482 85.5126C159.858 85.2894 160.637 84.825 161.424 85.1526C162.085 85.4226 162.479 86.1696 162.382 86.9706C162.308 87.5754 161.995 88.0812 161.743 88.488L156.571 96.822C156.534 96.88 156.499 96.9401 156.469 97.002C156.604 97.0533 156.754 97.0533 156.89 97.002C157.067 96.9214 157.237 96.8251 157.397 96.714C157.73 96.4733 158.106 96.2997 158.504 96.2028C158.772 96.1542 159.047 96.16 159.312 96.22C159.578 96.28 159.828 96.3929 160.049 96.552C160.643 96.9746 161.046 97.6142 161.172 98.3322C161.352 99.45 160.949 100.521 160.618 101.392C159.561 104.152 158.458 107.006 156.712 109.505C154.429 112.756 152.237 114.426 150.192 114.471L150.088 114.46ZM140.888 103.372C141.973 105.951 143.552 108.293 145.535 110.266L145.73 110.459C146.968 111.695 148.507 113.238 150.142 113.2C151.74 113.166 153.646 111.634 155.657 108.77C157.322 106.4 158.387 103.619 159.419 100.93C159.709 100.174 160.036 99.3096 159.905 98.5392C159.836 98.1566 159.622 97.8155 159.307 97.587C159.225 97.5244 159.13 97.479 159.03 97.4533C158.929 97.4277 158.825 97.4223 158.722 97.4376C158.481 97.5084 158.255 97.6218 158.054 97.7724C157.827 97.9252 157.586 98.0571 157.334 98.1666C157.068 98.274 156.779 98.3161 156.493 98.2891C156.207 98.2622 155.931 98.1671 155.689 98.0118C155.523 97.9029 155.387 97.7536 155.295 97.5779C155.202 97.4023 155.156 97.2059 155.16 97.0074C155.181 96.6982 155.288 96.4011 155.468 96.1488L160.639 87.8148C160.844 87.4818 161.059 87.1398 161.098 86.8086C161.123 86.598 161.037 86.3604 160.918 86.31C160.711 86.2272 160.265 86.49 160.096 86.5944L157.216 88.3098C157.099 88.3789 156.963 88.4087 156.828 88.3948C156.694 88.3808 156.567 88.3239 156.467 88.2324C155.668 87.498 155.786 86.2524 156.307 85.455C156.662 84.9567 157.098 84.5206 157.595 84.1644C157.725 84.0624 157.853 83.958 157.979 83.8512C158.805 83.1436 159.466 82.2639 159.916 81.2739C160.365 80.2839 160.593 79.2074 160.583 78.12C160.583 77.616 160.403 77.049 160.126 77.0112C159.905 76.9824 159.557 77.2686 159.37 77.4216L155.808 80.3574C155.707 80.4371 155.584 80.484 155.455 80.4916C155.327 80.4992 155.199 80.4672 155.089 80.3999C154.979 80.3326 154.892 80.2333 154.841 80.1153C154.789 79.9973 154.775 79.8663 154.8 79.74C155.299 77.5368 155.813 75.2598 155.894 72.9918C155.912 72.5184 155.894 71.3844 155.273 71.1216C154.697 70.8714 153.914 71.5428 153.421 72.2016C152.532 73.3772 151.805 74.6674 151.261 76.0374L151.159 76.2948C150.89 76.986 150.584 77.7672 149.976 78.354C149.182 79.1208 147.769 79.3782 146.93 78.534C146.347 77.9508 146.311 77.1408 146.284 76.491C146.284 76.3596 146.272 76.23 146.263 76.104C146.247 75.7902 146.12 75.4923 145.903 75.2652C145.832 75.2094 145.796 75.2166 145.771 75.2202C145.647 75.24 145.462 75.4686 145.316 76.0482C144.313 80.0511 144.204 84.2257 144.995 88.2756C145.075 88.6734 145.208 89.6724 144.745 90.3348C144.645 90.482 144.515 90.607 144.364 90.7018C144.214 90.7966 144.045 90.8591 143.869 90.8856C142.925 91.0368 142.439 90.2412 142.115 89.7156C141.935 89.415 141.741 89.1054 141.541 89.0064C141.49 88.9838 141.434 88.9736 141.378 88.9764C141.322 88.9792 141.268 88.995 141.219 89.0226C141.103 89.077 140.999 89.1551 140.914 89.2517C140.83 89.3484 140.766 89.4616 140.728 89.5842C140.58 90.1008 140.749 90.7164 140.971 91.4094L143.465 99.2538C143.696 99.9738 143.984 100.885 143.777 101.812C143.639 102.419 143.268 102.947 142.744 103.284C142.546 103.413 142.325 103.501 142.092 103.543C141.86 103.585 141.622 103.581 141.392 103.531C141.251 103.496 141.116 103.451 140.987 103.408L140.888 103.372Z" fill="#4C3133"/>
<path d="M151.459 120.539C151.326 120.538 151.197 120.496 151.09 120.418C150.982 120.34 150.903 120.23 150.862 120.103C147.486 109.653 147.57 98.393 151.103 87.9948C151.127 87.9137 151.168 87.8383 151.222 87.7732C151.276 87.7081 151.343 87.6545 151.418 87.6158C151.493 87.577 151.576 87.5539 151.66 87.5477C151.745 87.5415 151.83 87.5524 151.91 87.5798C151.99 87.6072 152.064 87.6504 152.127 87.707C152.19 87.7635 152.241 87.8322 152.277 87.9089C152.313 87.9857 152.333 88.0688 152.336 88.1535C152.339 88.2381 152.325 88.3225 152.294 88.4016C148.848 98.5443 148.765 109.528 152.059 119.722C152.089 119.816 152.096 119.917 152.081 120.015C152.065 120.113 152.026 120.206 151.968 120.286C151.91 120.367 151.833 120.432 151.745 120.478C151.656 120.523 151.559 120.547 151.459 120.548V120.539Z" fill="#4C3133"/>
<path d="M154.53 125.28H143.55C143.383 125.28 143.223 125.214 143.105 125.095C142.986 124.977 142.92 124.817 142.92 124.65C142.92 124.483 142.986 124.323 143.105 124.205C143.223 124.086 143.383 124.02 143.55 124.02H154.53C154.697 124.02 154.857 124.086 154.975 124.205C155.094 124.323 155.16 124.483 155.16 124.65C155.16 124.817 155.094 124.977 154.975 125.095C154.857 125.214 154.697 125.28 154.53 125.28Z" fill="#4C3133"/>
<path d="M160.65 125.28H158.49C158.323 125.28 158.163 125.214 158.045 125.095C157.926 124.977 157.86 124.817 157.86 124.65C157.86 124.483 157.926 124.323 158.045 124.205C158.163 124.086 158.323 124.02 158.49 124.02H160.65C160.817 124.02 160.977 124.086 161.095 124.205C161.214 124.323 161.28 124.483 161.28 124.65C161.28 124.817 161.214 124.977 161.095 125.095C160.977 125.214 160.817 125.28 160.65 125.28Z" fill="#4C3133"/>
<path d="M122.447 25.92H82.0332C81.685 25.9198 81.3402 25.9882 81.0184 26.1212C80.6967 26.2542 80.4042 26.4493 80.1579 26.6953C79.9115 26.9414 79.716 27.2335 79.5825 27.5551C79.4491 27.8767 79.3802 28.2215 79.38 28.5696V40.3416C79.3798 40.6899 79.4482 41.0348 79.5814 41.3566C79.7145 41.6784 79.9098 41.9707 80.1561 42.217C80.4023 42.4632 80.6947 42.6585 81.0165 42.7917C81.3383 42.9249 81.6832 42.9933 82.0314 42.993H83.1708C83.2505 42.993 83.327 43.0247 83.3834 43.0811C83.4397 43.1375 83.4714 43.2139 83.4714 43.2936V46.3806C83.471 46.4337 83.4846 46.4858 83.511 46.5318C83.5374 46.5778 83.5755 46.616 83.6215 46.6424C83.6675 46.6688 83.7197 46.6824 83.7727 46.682C83.8257 46.6815 83.8777 46.667 83.9232 46.6398L90.0126 43.0398C90.0586 43.0115 90.1116 42.9965 90.1656 42.9966H122.447C122.795 42.9969 123.141 42.9284 123.463 42.795C123.785 42.6616 124.078 42.466 124.324 42.2194C124.571 41.9728 124.766 41.68 124.899 41.3578C125.032 41.0356 125.1 40.6903 125.1 40.3416V28.5696C125.099 27.8666 124.819 27.1927 124.322 26.6959C123.824 26.1991 123.15 25.92 122.447 25.92Z" fill="white"/>
<path d="M122.447 25.92C123.15 25.92 123.824 26.1991 124.322 26.6959C124.819 27.1927 125.099 27.8666 125.1 28.5696V40.3416C125.1 40.69 125.031 41.0349 124.898 41.3567C124.765 41.6785 124.569 41.9709 124.323 42.2171C124.076 42.4633 123.784 42.6586 123.462 42.7917C123.14 42.9249 122.795 42.9933 122.447 42.993H90.1674C90.1134 42.9929 90.0604 43.0079 90.0144 43.0362L83.925 46.6362C83.8792 46.6634 83.827 46.6777 83.7738 46.6776C83.6941 46.6776 83.6176 46.646 83.5612 46.5896C83.5049 46.5332 83.4732 46.4568 83.4732 46.377V43.2936C83.4732 43.2139 83.4415 43.1374 83.3851 43.0811C83.3288 43.0247 83.2523 42.993 83.1726 42.993H82.0332C81.6848 42.9935 81.3397 42.9253 81.0177 42.7922C80.6957 42.6592 80.4031 42.4639 80.1567 42.2176C79.9102 41.9713 79.7148 41.6789 79.5815 41.357C79.4482 41.0351 79.3798 40.69 79.38 40.3416V28.5696C79.3802 28.2214 79.449 27.8767 79.5825 27.5551C79.716 27.2335 79.9115 26.9414 80.1578 26.6953C80.4042 26.4493 80.6966 26.2542 81.0184 26.1212C81.3402 25.9881 81.685 25.9198 82.0332 25.92H122.447ZM122.447 24.66H82.0332C80.9963 24.661 80.002 25.0731 79.2685 25.806C78.5349 26.5388 78.1219 27.5327 78.12 28.5696V40.3416C78.1214 41.3786 78.534 42.3726 79.2672 43.1058C80.0004 43.8391 80.9945 44.2516 82.0314 44.253H82.2114V46.3806C82.211 46.6561 82.2835 46.9267 82.4217 47.1649C82.5599 47.4032 82.7587 47.6006 82.9979 47.737C83.2372 47.8735 83.5083 47.9441 83.7837 47.9417C84.0591 47.9393 84.329 47.864 84.5658 47.7234L90.4284 44.253H122.447C123.484 44.2521 124.479 43.8397 125.212 43.1065C125.946 42.3732 126.359 41.3789 126.36 40.3416V28.5696C126.358 27.5327 125.945 26.5388 125.212 25.806C124.478 25.0731 123.484 24.661 122.447 24.66Z" fill="#4C3133"/>
<path d="M105.012 36.8568H83.664C83.4969 36.8568 83.3367 36.7904 83.2185 36.6723C83.1004 36.5541 83.034 36.3939 83.034 36.2268C83.034 36.0597 83.1004 35.8995 83.2185 35.7813C83.3367 35.6632 83.4969 35.5968 83.664 35.5968H105.012C105.179 35.5968 105.339 35.6632 105.457 35.7813C105.576 35.8995 105.642 36.0597 105.642 36.2268C105.642 36.3939 105.576 36.5541 105.457 36.6723C105.339 36.7904 105.179 36.8568 105.012 36.8568Z" fill="#4C3133"/>
<path d="M83.664 33.48C83.4969 33.4812 83.3362 33.4159 83.2172 33.2986C83.0982 33.1813 83.0307 33.0216 83.0295 32.8545C83.0283 32.6874 83.0935 32.5267 83.2108 32.4077C83.3281 32.2887 83.4879 32.2212 83.655 32.22L95.22 32.04C95.3027 32.0388 95.3849 32.0539 95.4618 32.0845C95.5387 32.1151 95.6088 32.1605 95.6681 32.2181C95.7274 32.2758 95.7748 32.3446 95.8076 32.4206C95.8404 32.4966 95.8578 32.5782 95.859 32.661C95.8602 32.7437 95.8451 32.8259 95.8145 32.9028C95.7839 32.9796 95.7385 33.0498 95.6808 33.1091C95.6232 33.1684 95.5544 33.2158 95.4784 33.2486C95.4024 33.2813 95.3207 33.2988 95.238 33.3L83.6748 33.48H83.664Z" fill="#4C3133"/>
<path d="M113.963 35.2242C112.963 35.1864 110.072 35.3358 109.393 38.2716C109.375 38.3545 109.331 38.4292 109.266 38.4842C109.202 38.5393 109.121 38.5716 109.036 38.5763C108.952 38.581 108.868 38.5578 108.798 38.5102C108.728 38.4627 108.675 38.3934 108.648 38.313C108.018 36.432 107.849 33.1452 113.985 32.58C114.076 32.5734 114.162 32.535 114.228 32.4715C114.294 32.408 114.335 32.3235 114.345 32.2326L114.575 29.88C114.582 29.811 114.607 29.7451 114.648 29.6892C114.689 29.6332 114.744 29.5892 114.808 29.5618C114.871 29.5344 114.941 29.5246 115.01 29.5334C115.078 29.5422 115.144 29.5693 115.198 29.6118L120.346 33.615C120.391 33.6498 120.428 33.6942 120.454 33.7449C120.48 33.7956 120.494 33.8513 120.496 33.9082C120.498 33.9651 120.487 34.0218 120.465 34.0741C120.442 34.1264 120.409 34.173 120.366 34.2108L115.225 38.781C115.172 38.8292 115.105 38.8615 115.034 38.8741C114.963 38.8867 114.89 38.8793 114.823 38.8525C114.756 38.8257 114.698 38.7807 114.655 38.7226C114.612 38.6645 114.587 38.5956 114.581 38.5236L114.334 35.5806C114.326 35.4862 114.284 35.3979 114.216 35.3323C114.148 35.2667 114.058 35.2283 113.963 35.2242Z" fill="#C5E6F1"/>
<path d="M114.968 39.51C114.712 39.5095 114.466 39.4133 114.278 39.2404C114.09 39.0674 113.974 38.8303 113.953 38.5758L113.726 35.8506C112.646 35.8506 110.531 36.1476 110.007 38.4138C109.958 38.6304 109.84 38.8251 109.67 38.9681C109.5 39.1112 109.288 39.1947 109.066 39.2059C108.845 39.2171 108.625 39.1554 108.442 39.0303C108.258 38.9051 108.121 38.7234 108.05 38.5128C107.528 36.954 107.631 35.55 108.346 34.4538C109.246 33.084 111.046 32.2488 113.733 31.9716L113.947 29.8116C113.965 29.6304 114.031 29.4573 114.139 29.3104C114.246 29.1635 114.391 29.0481 114.559 28.9764C114.726 28.9047 114.91 28.8792 115.09 28.9026C115.271 28.926 115.442 28.9975 115.585 29.1096L120.733 33.12C120.851 33.2117 120.948 33.3282 121.015 33.4613C121.083 33.5945 121.121 33.7409 121.126 33.8902C121.13 34.0396 121.102 34.1881 121.043 34.3254C120.984 34.4626 120.895 34.5851 120.784 34.6842L115.643 39.2544C115.457 39.4195 115.217 39.5105 114.968 39.51ZM113.989 34.596C114.237 34.6057 114.473 34.7059 114.652 34.8776C114.832 35.0494 114.942 35.2809 114.962 35.5284L115.168 37.989L119.731 33.9336L115.159 30.3786L114.966 32.2938C114.942 32.5294 114.837 32.7493 114.668 32.9158C114.5 33.0823 114.279 33.185 114.043 33.2064C111.658 33.426 110.097 34.0776 109.402 35.1432C108.958 35.8218 108.925 36.612 109.042 37.3032C110.146 34.6662 113.056 34.5546 113.989 34.5906V34.596Z" fill="#4C3133"/>
<path d="M99.2718 33.3H97.4718C97.3047 33.3 97.1445 33.2337 97.0263 33.1155C96.9082 32.9974 96.8418 32.8371 96.8418 32.67C96.8418 32.503 96.9082 32.3427 97.0263 32.2246C97.1445 32.1064 97.3047 32.04 97.4718 32.04H99.2718C99.4389 32.04 99.5991 32.1064 99.7173 32.2246C99.8354 32.3427 99.9018 32.503 99.9018 32.67C99.9018 32.8371 99.8354 32.9974 99.7173 33.1155C99.5991 33.2337 99.4389 33.3 99.2718 33.3Z" fill="#4C3133"/>
<path d="M117.506 75.1824C113.216 69.9498 104.675 67.095 98.7966 70.4412C94.563 72.8514 92.2842 77.661 91.08 82.3806C89.8758 87.1002 89.4744 92.0412 87.7176 96.5844C84.9258 103.799 78.8436 109.433 71.8776 112.784C64.998 116.1 58.77 117.18 51.183 117.47C51.903 124.834 57.2868 131.15 63.9414 134.57H102.78C104.572 133.859 106.282 132.956 107.881 131.879C113.396 128.12 117.086 122.182 119.581 115.99C122.41 108.954 123.886 101.448 123.932 93.8646C123.973 87.1092 121.795 80.4132 117.506 75.1824Z" fill="#C5E6F1"/>
<path d="M104.558 69.0012C109.373 69.0012 114.491 71.505 117.506 75.1824C121.795 80.4132 123.973 87.1092 123.935 93.8736C123.889 101.457 122.413 108.963 119.585 115.999C117.092 122.191 113.402 128.129 107.885 131.888C106.285 132.966 104.573 133.868 102.78 134.579H63.9414C57.2814 131.159 51.8994 124.834 51.183 117.479C58.77 117.191 64.998 116.109 71.8722 112.799C78.8436 109.442 84.9258 103.799 87.7122 96.5988C89.469 92.0556 89.8722 87.1146 91.0746 82.395C92.277 77.6754 94.5576 72.8658 98.7912 70.4556C100.553 69.4824 102.539 68.986 104.551 69.0156L104.558 69.0012ZM104.551 67.7556C102.186 67.7556 100.039 68.2956 98.1666 69.3612C94.2318 71.6004 91.4346 75.8808 89.8524 82.0836C89.397 83.8728 89.0514 85.7034 88.7166 87.4728C88.1406 90.5184 87.5988 93.393 86.535 96.1434C84.0564 102.546 78.5106 108.203 71.3178 111.668C65.2482 114.592 59.4 115.911 51.129 116.226C50.9575 116.233 50.7891 116.274 50.6342 116.348C50.4793 116.422 50.3411 116.527 50.2282 116.656C50.1152 116.785 50.0299 116.936 49.9774 117.1C49.925 117.263 49.9064 117.436 49.923 117.607C50.283 121.338 51.8094 125.03 54.3312 128.288C56.7682 131.383 59.8489 133.912 63.36 135.698C63.5386 135.791 63.7367 135.839 63.9378 135.839H102.78C102.941 135.839 103.101 135.808 103.25 135.747C105.126 135.002 106.917 134.057 108.59 132.928C113.648 129.483 117.738 123.946 120.749 116.471C123.627 109.284 125.133 101.622 125.19 93.8808C125.23 86.6376 122.85 79.7148 118.474 74.3832C115.168 70.3476 109.703 67.7412 104.553 67.7412L104.551 67.7556Z" fill="#4C3133"/>
<path d="M106.56 130.5H74.34C66.5172 130.5 59.3532 125.897 56.3112 118.69C56.1006 118.193 55.9152 117.686 55.7478 117.175C54.2682 117.315 52.749 117.41 51.1704 117.47C51.8904 124.834 57.2742 131.15 63.9288 134.57H102.78C107.282 132.81 111.196 129.815 114.071 125.93C113.308 126.605 112.503 127.231 111.661 127.805C110.063 128.884 108.352 129.788 106.56 130.5Z" fill="#81C4D4"/>
<path d="M107.73 79.29C97.83 78.39 97.83 87.75 101.25 91.35C104.67 94.95 111.24 91.44 116.82 91.98C119.864 92.2752 123.818 90.54 123.559 88.8912C122.993 85.2546 121.744 81.7577 119.88 78.5844C115.952 78.381 115.096 79.9596 107.73 79.29Z" fill="#81C4D4"/>
<path d="M119.221 85.2985C119.944 85.2985 120.53 84.7126 120.53 83.9899C120.53 83.2672 119.944 82.6813 119.221 82.6813C118.498 82.6813 117.913 83.2672 117.913 83.9899C117.913 84.7126 118.498 85.2985 119.221 85.2985Z" fill="#4C3133"/>
<path d="M108.049 85.9464C108.771 85.9464 109.357 85.3605 109.357 84.6378C109.357 83.9151 108.771 83.3292 108.049 83.3292C107.326 83.3292 106.74 83.9151 106.74 84.6378C106.74 85.3605 107.326 85.9464 108.049 85.9464Z" fill="#4C3133"/>
<path d="M119.223 76.7844H119.131L117.637 76.6332C117.398 76.6094 117.179 76.4916 117.027 76.306C116.875 76.1203 116.803 75.8819 116.827 75.6432C116.851 75.4045 116.969 75.1851 117.154 75.0332C117.34 74.8813 117.578 74.8094 117.817 74.8332L119.309 74.9844C119.428 74.9902 119.543 75.0192 119.65 75.0698C119.757 75.1204 119.853 75.1915 119.933 75.2792C120.012 75.3669 120.074 75.4693 120.114 75.5808C120.154 75.6922 120.171 75.8103 120.165 75.9285C120.16 76.0467 120.13 76.1626 120.08 76.2696C120.029 76.3766 119.958 76.4725 119.87 76.552C119.783 76.6315 119.68 76.6929 119.569 76.7328C119.458 76.7727 119.339 76.7902 119.221 76.7844H119.223Z" fill="#4C3133"/>
<path d="M106.033 78.8401C105.826 78.8398 105.626 78.7686 105.466 78.6382C105.305 78.5078 105.195 78.3262 105.153 78.124C105.11 77.9218 105.139 77.7112 105.234 77.5276C105.328 77.344 105.483 77.1986 105.673 77.1157L107.048 76.5181C107.267 76.4226 107.515 76.418 107.737 76.5053C107.959 76.5925 108.138 76.7645 108.233 76.9834C108.329 77.2023 108.333 77.4501 108.246 77.6724C108.159 77.8947 107.987 78.0732 107.768 78.1687L106.391 78.7663C106.278 78.8151 106.156 78.8403 106.033 78.8401Z" fill="#4C3133"/>
<path d="M109.643 64.8091C105.381 63.5491 99.9558 64.4707 96.0588 66.6091C94.3542 67.5451 92.7774 68.7889 90.8946 69.2749C89.0118 69.7609 86.6358 69.1759 85.9068 67.3741C85.4766 66.3139 85.7268 65.0647 86.346 64.1035C86.9652 63.1423 87.9102 62.4349 88.902 61.8679C91.4086 60.4452 94.2866 59.8134 97.1586 60.0553C97.9326 60.1219 98.9802 60.0679 99.1386 59.3083C99.2574 58.7197 98.6688 58.2283 98.0982 58.0483C97.5276 57.8683 96.885 57.8179 96.4278 57.4327C95.8428 56.9395 95.7762 56.0089 96.1272 55.3303C96.4782 54.6517 97.1568 54.1945 97.8642 53.9083C100.728 52.7491 104.144 54.0757 106.191 56.3905C108.238 58.7053 109.15 61.7995 109.694 64.8397L109.643 64.8091Z" fill="#C5E6F1"/>
<path d="M89.5986 70.0651C87.8148 70.0651 85.9986 69.2749 85.3218 67.6099C84.843 66.4273 85.0284 64.9891 85.8168 63.7633C86.4054 62.8489 87.3126 62.0497 88.5906 61.3207C91.2095 59.837 94.2148 59.1771 97.2144 59.4271C98.0226 59.4973 98.4744 59.3569 98.5176 59.1823C98.5464 59.0365 98.2782 58.7629 97.9002 58.6423C97.758 58.5955 97.6014 58.5577 97.4376 58.5163C96.9768 58.4047 96.4566 58.2769 96.0192 57.9079C95.2488 57.2599 95.0526 56.0251 95.5638 55.0279C95.94 54.2989 96.6528 53.7049 97.6248 53.3125C100.528 52.1353 104.242 53.2261 106.659 55.9603C108.999 58.6117 109.865 62.2261 110.309 64.7155C110.331 64.8306 110.32 64.9494 110.278 65.0586C110.235 65.1677 110.163 65.2629 110.07 65.3333C109.976 65.4037 109.865 65.4465 109.748 65.4569C109.631 65.4673 109.514 65.4449 109.409 65.3923C105.556 64.2745 100.319 64.9819 96.3576 67.1563C95.877 67.4191 95.391 67.7179 94.9176 68.0059C93.7134 68.7457 92.4696 69.5107 91.0422 69.8797C90.5705 70.0009 90.0856 70.0632 89.5986 70.0651ZM95.9634 60.6331C93.5979 60.635 91.2732 61.2489 89.2152 62.4151C88.1172 63.0415 87.3522 63.7057 86.8752 64.4455C86.3154 65.3131 86.1678 66.3445 86.4882 67.1455C87.0822 68.6125 89.154 69.0805 90.7344 68.6737C91.98 68.3515 93.0888 67.6693 94.2642 66.9475C94.7466 66.6505 95.2452 66.3445 95.7546 66.0655C99.7614 63.8659 104.8 63.0811 108.88 63.9721C108.414 61.7329 107.564 58.9033 105.712 56.8081C104.02 54.8929 100.915 53.3521 98.0964 54.4933C97.6158 54.6877 96.9804 55.0423 96.6816 55.6201C96.4422 56.0845 96.5016 56.6821 96.8274 56.9521C97.0398 57.1321 97.3674 57.2095 97.7274 57.2995C97.9074 57.3445 98.0874 57.3895 98.2818 57.4507C99.1512 57.7333 99.9324 58.5091 99.7434 59.4415C99.6336 59.9815 99.1422 60.8689 97.0956 60.6925C96.7248 60.6493 96.3432 60.6331 95.9634 60.6331Z" fill="#4C3133"/>
<path d="M139.631 68.1912C133.933 69.9282 129.071 64.602 127.984 59.7312C127.782 58.8312 127.582 57.879 127.84 56.9898C128.097 56.1006 128.983 55.3194 129.886 55.5174C130.79 55.7154 131.24 56.7 131.632 57.5388C132.025 58.3776 132.712 59.3028 133.623 59.193C134.613 59.076 135.02 57.8826 135.211 56.9034L136.386 50.859C136.557 49.9788 136.814 48.978 137.617 48.5766C138.517 48.1284 139.655 48.744 140.126 49.6296C140.598 50.5152 140.576 51.5736 140.531 52.5762C140.486 53.5788 140.431 54.6282 140.848 55.5426C141.264 53.5845 142.036 51.7194 143.125 50.04C143.582 49.338 144.34 48.5874 145.127 48.8718C145.829 49.1256 146.011 50.0202 146.038 50.7654C146.113 52.8703 145.825 54.9725 145.184 56.979C145.544 55.998 145.935 54.9774 146.716 54.279C147.497 53.5806 148.799 53.3556 149.566 54.0648C150.545 54.9648 150.055 56.5848 149.431 57.7674C148.134 60.2134 146.54 62.4902 144.686 64.5462C143.28 66.105 141.644 67.5774 139.631 68.1912Z" fill="#C5E6F1"/>
<path d="M137.423 69.156C135.912 69.1452 134.432 68.7293 133.137 67.9518C130.369 66.3318 128.097 63.1638 127.377 59.8608C127.181 58.9752 126.934 57.8718 127.244 56.8008C127.573 55.6596 128.734 54.6048 130.03 54.8892C131.229 55.152 131.767 56.304 132.19 57.2292L132.203 57.258C132.354 57.582 132.901 58.6314 133.547 58.554C134.138 58.4838 134.447 57.5442 134.591 56.7702L135.767 50.724C135.914 49.9734 136.186 48.573 137.336 47.9988C138.587 47.376 140.076 48.1788 140.683 49.32C141.185 50.2668 141.212 51.3 141.169 52.38C141.563 51.4391 142.042 50.5354 142.598 49.68C143.392 48.4596 144.418 47.9304 145.341 48.2634C145.913 48.4704 146.601 49.0644 146.668 50.7258C146.703 51.6837 146.665 52.6429 146.554 53.595C147.537 52.9002 149.033 52.704 149.992 53.595C150.998 54.5256 150.997 56.151 149.992 58.0554C148.671 60.5473 147.047 62.8665 145.157 64.9602C143.879 66.375 142.119 68.0868 139.819 68.7888C139.043 69.0292 138.235 69.1529 137.423 69.156ZM129.6 56.1096C129.101 56.1096 128.596 56.6244 128.441 57.1572C128.221 57.9132 128.419 58.8024 128.596 59.5872C129.258 62.5626 131.296 65.4192 133.767 66.8628C135.578 67.9176 137.547 68.1696 139.444 67.5828C141.449 66.9726 143.044 65.4102 144.214 64.116C146.036 62.0971 147.6 59.86 148.871 57.456C149.137 56.9538 149.942 55.2582 149.134 54.5112C148.628 54.0432 147.672 54.2538 147.132 54.7344C146.45 55.3392 146.09 56.3148 145.771 57.1752C145.717 57.3333 145.602 57.4632 145.452 57.5364C145.301 57.6097 145.128 57.6203 144.97 57.5658C144.812 57.5114 144.682 57.3965 144.609 57.2462C144.536 57.096 144.525 56.9229 144.58 56.7648C145.201 54.8282 145.481 52.798 145.406 50.7654C145.391 50.418 145.319 49.59 144.909 49.4424C144.538 49.3092 144.009 49.8024 143.649 50.3622C142.599 51.975 141.857 53.7679 141.458 55.6506C141.431 55.7805 141.363 55.8984 141.265 55.9875C141.167 56.0767 141.043 56.1325 140.911 56.1471C140.779 56.1616 140.646 56.1342 140.531 56.0686C140.415 56.0031 140.324 55.9028 140.269 55.782C139.793 54.7398 139.847 53.5788 139.894 52.5564V52.5258C139.939 51.5574 139.948 50.6286 139.563 49.905C139.241 49.3002 138.458 48.8376 137.893 49.1202C137.369 49.3812 137.153 50.157 136.993 50.958L135.817 57.0024C135.482 58.7286 134.764 59.67 133.686 59.7978C132.653 59.922 131.706 59.2056 131.051 57.7836L131.036 57.7548C130.705 57.0456 130.331 56.2392 129.74 56.1114C129.694 56.106 129.647 56.1054 129.6 56.1096Z" fill="#4C3133"/>
<path d="M133.501 59.4937C134.357 59.5215 135.194 59.7534 135.943 60.1701C136.691 60.5868 137.33 61.1763 137.804 61.8895" fill="#C5E6F1"/>
<path d="M137.806 62.5194C137.701 62.5198 137.598 62.4938 137.505 62.4438C137.413 62.3938 137.334 62.3214 137.277 62.2332C136.857 61.6068 136.294 61.0888 135.635 60.7215C134.976 60.3542 134.24 60.1481 133.486 60.12C133.319 60.1162 133.16 60.0462 133.045 59.9253C132.929 59.8045 132.867 59.6427 132.871 59.4756C132.874 59.3085 132.944 59.1498 133.065 59.0344C133.186 58.9189 133.348 58.8562 133.515 58.86C134.474 58.888 135.412 59.1459 136.25 59.612C137.088 60.0781 137.802 60.7388 138.332 61.5384C138.377 61.6076 138.409 61.685 138.424 61.7663C138.44 61.8476 138.439 61.9312 138.423 62.0122C138.406 62.0933 138.373 62.1703 138.327 62.2388C138.28 62.3073 138.221 62.366 138.152 62.4114C138.049 62.4801 137.929 62.5176 137.806 62.5194Z" fill="#4C3133"/>
<path d="M123.39 51.39C123.39 51.39 121.59 58.41 127.71 67.05L123.39 51.39Z" fill="white"/>
<path d="M127.71 67.68C127.609 67.68 127.51 67.6559 127.42 67.6095C127.331 67.5632 127.253 67.496 127.195 67.4136C120.978 58.6368 122.695 51.5322 122.78 51.2334C122.825 51.0757 122.93 50.9417 123.072 50.86C123.214 50.7783 123.382 50.7553 123.541 50.7958C123.7 50.8364 123.837 50.9373 123.923 51.0772C124.009 51.217 124.036 51.3848 124 51.5448C123.979 51.6348 122.38 58.4262 128.225 66.6864C128.291 66.7807 128.331 66.8916 128.339 67.0068C128.347 67.122 128.323 67.2373 128.27 67.3398C128.217 67.4424 128.136 67.5284 128.038 67.5884C127.939 67.6483 127.826 67.68 127.71 67.68Z" fill="#4C3133"/>
<path d="M16.614 54.9558H67.068C67.9464 54.9558 68.7888 55.3048 69.4099 55.9259C70.0311 56.547 70.38 57.3894 70.38 58.2678V72.9648C70.38 73.8432 70.0311 74.6856 69.4099 75.3067C68.7888 75.9279 67.9464 76.2768 67.068 76.2768H65.646C65.5465 76.2773 65.4513 76.3171 65.3812 76.3876C65.311 76.4581 65.2716 76.5535 65.2716 76.653V80.5068C65.2716 80.5729 65.2541 80.6378 65.2209 80.6949C65.1878 80.7521 65.14 80.7994 65.0826 80.8321C65.0252 80.8649 64.9602 80.8818 64.8941 80.8813C64.828 80.8807 64.7633 80.8627 64.7064 80.829L57.105 76.329C57.0472 76.2949 56.9813 76.2769 56.9142 76.2768H16.614C15.7356 76.2768 14.8932 75.9279 14.2721 75.3067C13.6509 74.6856 13.302 73.8432 13.302 72.9648V58.2678C13.302 57.3894 13.6509 56.547 14.2721 55.9259C14.8932 55.3048 15.7356 54.9558 16.614 54.9558Z" fill="white"/>
<path d="M67.068 54.9558C67.9464 54.9558 68.7888 55.3047 69.4099 55.9259C70.0311 56.547 70.38 57.3894 70.38 58.2678V72.9648C70.38 73.8432 70.0311 74.6856 69.4099 75.3067C68.7888 75.9279 67.9464 76.2768 67.068 76.2768H65.646C65.5465 76.2773 65.4513 76.3171 65.3811 76.3876C65.311 76.4581 65.2716 76.5535 65.2716 76.653V80.5068C65.2716 80.5729 65.2541 80.6378 65.2209 80.6949C65.1877 80.7521 65.14 80.7994 65.0826 80.8321C65.0252 80.8649 64.9602 80.8818 64.8941 80.8813C64.828 80.8807 64.7633 80.8627 64.7064 80.829L57.105 76.329C57.0472 76.2949 56.9813 76.2769 56.9142 76.2768H16.614C15.7356 76.2768 14.8932 75.9279 14.2721 75.3067C13.6509 74.6856 13.302 73.8432 13.302 72.9648V58.2678C13.302 57.3894 13.6509 56.547 14.2721 55.9259C14.8932 55.3047 15.7356 54.9558 16.614 54.9558H67.068ZM67.068 53.6958H16.614C15.4019 53.6972 14.2398 54.1794 13.3827 55.0365C12.5256 55.8936 12.0434 57.0557 12.042 58.2678V72.9648C12.0429 74.1771 12.5249 75.3394 13.3822 76.1966C14.2394 77.0539 15.4017 77.5358 16.614 77.5368H56.6712L64.0638 81.9126C64.312 82.0597 64.5946 82.1385 64.8831 82.141C65.1715 82.1435 65.4555 82.0696 65.7062 81.9268C65.9568 81.784 66.1652 81.5774 66.3102 81.328C66.4552 81.0786 66.5316 80.7953 66.5316 80.5068V77.5368H67.0716C68.2839 77.5358 69.4462 77.0539 70.3034 76.1966C71.1606 75.3394 71.6426 74.1771 71.6436 72.9648V58.2678C71.6422 57.0557 71.16 55.8936 70.3029 55.0365C69.4458 54.1794 68.2837 53.6972 67.0716 53.6958H67.068Z" fill="#4C3133"/>
<path d="M13.302 60.5088C16.2455 60.5088 18.6318 58.1226 18.6318 55.179C18.6318 52.2355 16.2455 49.8492 13.302 49.8492C10.3584 49.8492 7.97217 52.2355 7.97217 55.179C7.97217 58.1226 10.3584 60.5088 13.302 60.5088Z" fill="white"/>
<path d="M13.302 49.8492C14.3561 49.8492 15.3866 50.1618 16.2631 50.7475C17.1396 51.3331 17.8227 52.1655 18.2261 53.1394C18.6295 54.1133 18.735 55.1849 18.5294 56.2188C18.3237 57.2527 17.8161 58.2024 17.0707 58.9478C16.3253 59.6932 15.3757 60.2008 14.3418 60.4064C13.3079 60.6121 12.2363 60.5065 11.2624 60.1031C10.2885 59.6997 9.45607 59.0166 8.87043 58.1401C8.28478 57.2636 7.97219 56.2332 7.97219 55.179C7.97219 53.7655 8.53372 52.4098 9.53325 51.4103C10.5328 50.4108 11.8884 49.8492 13.302 49.8492ZM13.302 48.5892C11.9987 48.5892 10.7246 48.9757 9.64089 49.6998C8.55721 50.4239 7.71258 51.4531 7.21381 52.6572C6.71504 53.8614 6.58454 55.1863 6.83881 56.4646C7.09308 57.7429 7.7207 58.9171 8.6423 59.8387C9.5639 60.7603 10.7381 61.3879 12.0164 61.6422C13.2947 61.8965 14.6197 61.766 15.8238 61.2672C17.0279 60.7684 18.0571 59.9238 18.7812 58.8401C19.5053 57.7564 19.8918 56.4824 19.8918 55.179C19.8899 53.4319 19.195 51.7569 17.9596 50.5214C16.7242 49.286 15.0491 48.5911 13.302 48.5892Z" fill="#4C3133"/>
<path d="M53.5032 70.0596H62.1594C63.0193 70.0596 63.7164 69.3625 63.7164 68.5026V63.3996C63.7164 62.5397 63.0193 61.8426 62.1594 61.8426H53.5032C52.6433 61.8426 51.9462 62.5397 51.9462 63.3996V68.5026C51.9462 69.3625 52.6433 70.0596 53.5032 70.0596Z" fill="#C5E6F1"/>
<path d="M62.1594 70.6896H53.5032C52.9231 70.6887 52.3671 70.4577 51.9571 70.0474C51.5472 69.637 51.3166 69.0809 51.3162 68.5008V63.3996C51.3166 62.8196 51.5472 62.2634 51.9571 61.8531C52.3671 61.4427 52.9231 61.2118 53.5032 61.2108H62.1594C62.7394 61.2118 63.2954 61.4427 63.7054 61.8531C64.1154 62.2634 64.3459 62.8196 64.3464 63.3996V68.5008C64.3459 69.0809 64.1154 69.637 63.7054 70.0474C63.2954 70.4577 62.7394 70.6887 62.1594 70.6896ZM53.5032 62.4708C53.2571 62.4713 53.0214 62.5694 52.8476 62.7435C52.6738 62.9176 52.5762 63.1536 52.5762 63.3996V68.5008C52.5762 68.7468 52.6738 68.9828 52.8476 69.1569C53.0214 69.3311 53.2571 69.4291 53.5032 69.4296H62.1594C62.4054 69.4291 62.6412 69.3311 62.815 69.1569C62.9888 68.9828 63.0864 68.7468 63.0864 68.5008V63.3996C63.0864 63.1536 62.9888 62.9176 62.815 62.7435C62.6412 62.5694 62.4054 62.4713 62.1594 62.4708H53.5032Z" fill="#4C3133"/>
<path d="M52.209 69.9984C52.0811 69.9984 51.9563 69.9595 51.8511 69.8868C51.7459 69.8142 51.6653 69.7113 51.62 69.5917C51.5747 69.4722 51.5668 69.3417 51.5974 69.2176C51.628 69.0934 51.6957 68.9816 51.7914 68.8968L57.5244 63.8136C57.6393 63.7139 57.7863 63.6591 57.9384 63.6591C58.0905 63.6591 58.2375 63.7139 58.3524 63.8136L64.0044 68.6358C64.1316 68.7442 64.2106 68.8986 64.2239 69.0652C64.2372 69.2318 64.1838 69.3969 64.0755 69.5241C63.9671 69.6513 63.8126 69.7303 63.6461 69.7436C63.4795 69.757 63.3144 69.7036 63.1872 69.5952L57.96 65.1186L52.6284 69.84C52.5126 69.9423 52.3634 69.9986 52.209 69.9984Z" fill="#4C3133"/>
<path d="M63.216 62.2567L57.942 66.7279L52.4484 62.2567" fill="#C5E6F1"/>
<path d="M57.942 67.3579C57.7974 67.3581 57.6573 67.3078 57.546 67.2157L52.0506 62.7445C51.921 62.639 51.8386 62.4863 51.8215 62.32C51.8045 62.1538 51.8542 61.9876 51.9597 61.858C52.0652 61.7284 52.2179 61.646 52.3841 61.6289C52.5504 61.6119 52.7166 61.6616 52.8462 61.7671L57.9348 65.9071L62.8074 61.7671C62.9348 61.6589 63.1 61.6059 63.2666 61.6195C63.4332 61.6332 63.5875 61.7125 63.6957 61.84C63.8038 61.9674 63.8569 62.1326 63.8432 62.2992C63.8295 62.4658 63.7502 62.6201 63.6228 62.7283L58.3506 67.1995C58.2376 67.2993 58.0927 67.3555 57.942 67.3579Z" fill="#4C3133"/>
<path d="M47.5038 69.1344H20.853C20.6859 69.1344 20.5256 69.068 20.4075 68.9499C20.2893 68.8317 20.223 68.6715 20.223 68.5044C20.223 68.3373 20.2893 68.1771 20.4075 68.0589C20.5256 67.9408 20.6859 67.8744 20.853 67.8744H47.5038C47.6708 67.8744 47.8311 67.9408 47.9492 68.0589C48.0674 68.1771 48.1338 68.3373 48.1338 68.5044C48.1338 68.6715 48.0674 68.8317 47.9492 68.9499C47.8311 69.068 47.6708 69.1344 47.5038 69.1344Z" fill="#4C3133"/>
<path d="M47.5038 64.9153H47.4948L33.0588 64.6921C32.976 64.6908 32.8944 64.6732 32.8184 64.6403C32.7425 64.6075 32.6738 64.56 32.6162 64.5006C32.5586 64.4411 32.5133 64.371 32.4828 64.294C32.4524 64.2171 32.4374 64.1349 32.4387 64.0522C32.44 63.9695 32.4576 63.8878 32.4904 63.8118C32.5233 63.7359 32.5708 63.6672 32.6302 63.6096C32.6896 63.552 32.7598 63.5067 32.8367 63.4763C32.9137 63.4458 32.9958 63.4308 33.0786 63.4321L47.5146 63.6553C47.6817 63.6567 47.8413 63.7245 47.9585 63.8436C48.0756 63.9628 48.1406 64.1236 48.1392 64.2907C48.1377 64.4578 48.07 64.6174 47.9508 64.7346C47.8317 64.8517 47.6709 64.9167 47.5038 64.9153Z" fill="#4C3133"/>
<path d="M12.87 57.6H12.8502C12.7482 57.5966 12.6485 57.5684 12.5598 57.518C12.471 57.4675 12.3959 57.3962 12.3408 57.3102L10.7208 54.7902C10.6708 54.7208 10.6355 54.642 10.6169 54.5584C10.5984 54.4749 10.5971 54.3885 10.613 54.3045C10.629 54.2204 10.6619 54.1405 10.7097 54.0696C10.7576 53.9987 10.8194 53.9383 10.8913 53.892C10.9633 53.8458 11.0439 53.8147 11.1283 53.8006C11.2126 53.7865 11.299 53.7897 11.3821 53.8101C11.4651 53.8305 11.5432 53.8676 11.6115 53.9191C11.6798 53.9706 11.7368 54.0355 11.7792 54.1098L12.906 55.8612L15.426 52.4556C15.4734 52.3848 15.5347 52.3243 15.6062 52.2778C15.6777 52.2314 15.7578 52.1999 15.8418 52.1853C15.9258 52.1707 16.0119 52.1733 16.0948 52.193C16.1778 52.2127 16.2559 52.2489 16.3244 52.2997C16.3929 52.3504 16.4504 52.4145 16.4935 52.4881C16.5365 52.5617 16.5641 52.6432 16.5747 52.7278C16.5853 52.8124 16.5786 52.8982 16.555 52.9802C16.5315 53.0621 16.4915 53.1384 16.4376 53.2044L13.3776 57.3444C13.3193 57.4241 13.2428 57.4889 13.1546 57.5333C13.0663 57.5777 12.9688 57.6006 12.87 57.6Z" fill="#4C3133"/>
<path d="M31.05 64.62H28.53C28.3629 64.62 28.2026 64.5536 28.0845 64.4355C27.9663 64.3173 27.9 64.1571 27.9 63.99C27.9 63.8229 27.9663 63.6627 28.0845 63.5445C28.2026 63.4264 28.3629 63.36 28.53 63.36H31.05C31.217 63.36 31.3773 63.4264 31.4954 63.5445C31.6136 63.6627 31.68 63.8229 31.68 63.99C31.68 64.1571 31.6136 64.3173 31.4954 64.4355C31.3773 64.5536 31.217 64.62 31.05 64.62Z" fill="#4C3133"/>
<path d="M136.386 110.567H93.42C92.672 110.567 91.9545 110.864 91.4256 111.393C90.8966 111.922 90.5994 112.639 90.5994 113.387V125.905C90.5992 126.275 90.672 126.642 90.8136 126.985C90.9553 127.327 91.163 127.638 91.4249 127.9C91.6869 128.162 91.9979 128.37 92.3402 128.512C92.6825 128.654 93.0495 128.727 93.42 128.727H94.6296C94.7143 128.727 94.7955 128.761 94.8555 128.82C94.9156 128.88 94.9496 128.961 94.95 129.046V132.329C94.9502 132.385 94.9651 132.44 94.9934 132.489C95.0216 132.537 95.0622 132.577 95.111 132.605C95.1598 132.633 95.215 132.647 95.2712 132.647C95.3273 132.646 95.3823 132.631 95.4306 132.602L101.911 128.77C101.96 128.742 102.017 128.727 102.074 128.727H136.386C137.134 128.727 137.852 128.429 138.381 127.9C138.91 127.371 139.207 126.653 139.207 125.905V113.387C139.206 112.64 138.909 111.922 138.38 111.394C137.851 110.865 137.134 110.567 136.386 110.567Z" fill="white"/>
<path d="M136.386 110.567C137.134 110.567 137.851 110.865 138.38 111.394C138.909 111.922 139.206 112.64 139.207 113.387V125.905C139.207 126.653 138.91 127.371 138.381 127.9C137.852 128.429 137.134 128.727 136.386 128.727H102.06C102.003 128.727 101.946 128.742 101.896 128.77L95.4162 132.602C95.368 132.632 95.3129 132.647 95.2565 132.648C95.2002 132.649 95.1446 132.635 95.0957 132.607C95.0467 132.579 95.0061 132.538 94.9779 132.49C94.9498 132.441 94.9352 132.385 94.9356 132.329V129.046C94.9351 128.961 94.9012 128.88 94.8411 128.82C94.7811 128.761 94.6999 128.727 94.6152 128.727H93.42C93.0495 128.727 92.6825 128.654 92.3402 128.512C91.9979 128.37 91.6869 128.162 91.4249 127.9C91.163 127.638 90.9552 127.327 90.8136 126.985C90.672 126.642 90.5992 126.275 90.5994 125.905V113.387C90.5994 112.639 90.8966 111.922 91.4256 111.393C91.9545 110.864 92.6719 110.567 93.42 110.567H136.386ZM136.386 109.307H93.42C92.3382 109.308 91.3011 109.739 90.5362 110.504C89.7712 111.269 89.3408 112.306 89.3394 113.387V125.905C89.3404 126.987 89.7705 128.024 90.5355 128.79C91.3005 129.555 92.3379 129.986 93.42 129.987H93.69V132.327C93.6904 132.606 93.7644 132.879 93.9044 133.12C94.0445 133.36 94.2457 133.56 94.4875 133.698C94.7294 133.836 95.0035 133.907 95.2819 133.905C95.5604 133.903 95.8334 133.828 96.0732 133.686L102.326 129.985H136.386C137.468 129.984 138.505 129.553 139.27 128.788C140.035 128.023 140.466 126.985 140.467 125.903V113.387C140.465 112.306 140.035 111.269 139.27 110.504C138.505 109.739 137.468 109.308 136.386 109.307Z" fill="#4C3133"/>
<path d="M121.235 122.677C123.325 122.677 125.019 120.983 125.019 118.894C125.019 116.804 123.325 115.11 121.235 115.11C119.146 115.11 117.452 116.804 117.452 118.894C117.452 120.983 119.146 122.677 121.235 122.677Z" fill="#F0F0F0"/>
<path d="M121.235 123.3C120.363 123.3 119.509 123.041 118.783 122.556C118.058 122.071 117.492 121.382 117.158 120.576C116.824 119.769 116.736 118.882 116.907 118.025C117.077 117.169 117.497 116.383 118.115 115.766C118.732 115.148 119.518 114.728 120.374 114.558C121.231 114.387 122.118 114.475 122.924 114.809C123.731 115.143 124.42 115.709 124.905 116.434C125.39 117.16 125.649 118.014 125.649 118.886C125.648 120.057 125.182 121.178 124.355 122.006C123.527 122.833 122.406 123.299 121.235 123.3ZM121.235 115.74C120.612 115.74 120.002 115.925 119.483 116.272C118.965 116.618 118.561 117.111 118.322 117.687C118.083 118.263 118.021 118.897 118.142 119.509C118.264 120.121 118.564 120.683 119.006 121.124C119.447 121.565 120.008 121.865 120.62 121.987C121.232 122.108 121.866 122.046 122.442 121.807C123.019 121.569 123.511 121.164 123.858 120.646C124.204 120.127 124.389 119.517 124.389 118.894C124.388 118.058 124.056 117.256 123.464 116.665C122.873 116.074 122.072 115.741 121.235 115.74Z" fill="#4C3133"/>
<path d="M134.383 118.134H132.008C132.692 117.621 133.369 117.054 133.268 116.053C133.088 114.161 131.756 115.106 131.756 116.053C131.756 117.376 129.722 116.809 129.699 118.89C129.683 118.958 129.675 119.027 129.676 119.097V121.257C129.676 121.491 129.761 121.718 129.915 121.894C130.069 122.071 130.282 122.185 130.514 122.216L133.38 122.6C133.625 122.633 133.875 122.613 134.112 122.541C134.349 122.47 134.568 122.348 134.755 122.185C134.941 122.022 135.09 121.821 135.192 121.595C135.295 121.37 135.347 121.125 135.347 120.877V119.101C135.348 118.974 135.323 118.848 135.274 118.731C135.226 118.614 135.155 118.507 135.065 118.417C134.976 118.327 134.869 118.256 134.752 118.208C134.635 118.159 134.509 118.134 134.383 118.134Z" fill="#C5E6F1"/>
<path d="M132.606 114.961C132.907 114.961 133.189 115.254 133.268 116.053C133.369 117.058 132.692 117.621 132.008 118.134H134.383C134.51 118.134 134.635 118.159 134.753 118.207C134.87 118.256 134.977 118.327 135.067 118.417C135.156 118.506 135.228 118.613 135.276 118.73C135.325 118.848 135.349 118.974 135.349 119.101V120.877C135.35 121.125 135.298 121.371 135.196 121.597C135.094 121.823 134.944 122.025 134.758 122.188C134.571 122.351 134.351 122.473 134.114 122.544C133.876 122.615 133.626 122.634 133.38 122.6L130.514 122.22C130.282 122.189 130.069 122.074 129.915 121.898C129.761 121.721 129.676 121.495 129.676 121.261V119.101C129.675 119.031 129.683 118.961 129.699 118.894C129.722 116.813 131.756 117.38 131.756 116.057C131.756 115.517 132.197 114.964 132.606 114.964V114.961ZM132.606 113.704C132.3 113.713 131.999 113.792 131.728 113.934C131.456 114.076 131.22 114.278 131.038 114.525C130.727 114.914 130.539 115.387 130.498 115.884L130.307 115.988C129.719 116.303 128.507 116.951 128.437 118.768C128.42 118.879 128.412 118.992 128.412 119.104V121.264C128.413 121.803 128.609 122.324 128.964 122.73C129.319 123.136 129.809 123.4 130.343 123.473L133.213 123.854C133.345 123.872 133.479 123.881 133.612 123.881C134.407 123.88 135.168 123.563 135.729 123.001C136.29 122.439 136.606 121.677 136.606 120.883V119.106C136.605 118.532 136.383 117.98 135.986 117.565C135.588 117.151 135.046 116.906 134.473 116.881C134.537 116.569 134.553 116.249 134.519 115.933C134.307 113.814 132.885 113.706 132.602 113.706L132.606 113.704Z" fill="#4C3133"/>
<path d="M113.355 123.673H95.0058C94.8387 123.673 94.6785 123.606 94.5603 123.488C94.4422 123.37 94.3758 123.21 94.3758 123.043C94.3758 122.876 94.4422 122.715 94.5603 122.597C94.6785 122.479 94.8387 122.413 95.0058 122.413H113.355C113.522 122.413 113.682 122.479 113.8 122.597C113.919 122.715 113.985 122.876 113.985 123.043C113.985 123.21 113.919 123.37 113.8 123.488C113.682 123.606 113.522 123.673 113.355 123.673Z" fill="#4C3133"/>
<path d="M103.14 119.7C102.973 119.702 102.812 119.637 102.693 119.519C102.574 119.402 102.506 119.243 102.505 119.076C102.503 118.908 102.568 118.748 102.685 118.628C102.802 118.509 102.962 118.442 103.129 118.44L113.344 118.26C113.511 118.257 113.673 118.32 113.793 118.436C113.913 118.552 113.983 118.711 113.986 118.878C113.989 119.046 113.926 119.207 113.81 119.327C113.694 119.448 113.535 119.517 113.368 119.52L103.153 119.7H103.14Z" fill="#4C3133"/>
<path d="M100.17 119.52H98.55C98.383 119.52 98.2227 119.454 98.1046 119.336C97.9864 119.217 97.92 119.057 97.92 118.89C97.92 118.723 97.9864 118.563 98.1046 118.445C98.2227 118.327 98.383 118.26 98.55 118.26H100.17C100.337 118.26 100.497 118.327 100.616 118.445C100.734 118.563 100.8 118.723 100.8 118.89C100.8 119.057 100.734 119.217 100.616 119.336C100.497 119.454 100.337 119.52 100.17 119.52Z" fill="#4C3133"/>
</svg>
