<svg width="180" height="180" viewBox="0 0 180 180" fill="none" xmlns="http://www.w3.org/2000/svg">
<rect width="180" height="180" fill="white"/>
<path d="M92.1942 71.0893L84.7926 60.5899C84.4893 60.1602 84.1039 59.7947 83.6587 59.5145C83.2135 59.2344 82.7172 59.0451 82.1986 58.9576C81.6799 58.8701 81.149 58.8861 80.6365 59.0047C80.1241 59.1233 79.6401 59.3421 79.2126 59.6485L77.5926 60.8077C76.9735 61.2535 76.2394 61.5119 75.4776 61.5521C74.7158 61.5923 73.9585 61.4127 73.296 61.0345C72.6624 60.6745 72.0114 60.3313 71.343 60.0049C68.67 58.7129 65.826 57.8097 62.8974 57.3229C62.1068 57.1892 61.3752 56.8196 60.7986 56.2626C60.222 55.7056 59.8273 54.9871 59.6664 54.2017L59.4558 53.1847C59.3491 52.6682 59.141 52.178 58.8436 51.7424C58.5461 51.3069 58.1652 50.9347 57.7229 50.6474C57.2806 50.3601 56.7856 50.1634 56.2668 50.0688C55.7479 49.9741 55.2155 49.9833 54.7002 50.0959L42.12 52.8355C41.0929 53.0585 40.1954 53.6778 39.6224 54.5588C39.0494 55.4399 38.8473 56.5115 39.06 57.5407L39.5334 59.8231C39.6828 60.5496 39.6273 61.3034 39.373 62.0001C39.1187 62.6969 38.6757 63.3092 38.0934 63.7687C37.6926 64.0879 37.2972 64.4167 36.9072 64.7551C36.3167 65.2763 35.5861 65.6123 34.8062 65.7215C34.0262 65.8306 33.2314 65.708 32.5206 65.3689L30.6648 64.4689C29.7124 64.0088 28.6162 63.9459 27.6174 64.2939C26.6186 64.6419 25.7989 65.3724 25.3386 66.3247L19.6758 78.0463C19.4473 78.5179 19.314 79.0298 19.2834 79.5529C19.2528 80.076 19.3256 80.6 19.4976 81.0949C19.6696 81.5899 19.9375 82.0461 20.2859 82.4375C20.6342 82.8289 21.0563 83.1479 21.528 83.3761L23.6412 84.3985C24.3356 84.7288 24.92 85.2525 25.3242 85.9067C25.7284 86.5609 25.9353 87.3178 25.92 88.0867C25.8531 90.5642 26.076 93.041 26.5842 95.4667C26.7385 96.2186 26.6709 96.9992 26.3897 97.7135C26.1085 98.4277 25.6257 99.0448 25.0002 99.4897L22.761 101.099C21.9072 101.713 21.3302 102.639 21.1556 103.675C20.981 104.712 21.2228 105.776 21.8286 106.636L29.2302 117.137C29.5338 117.566 29.9193 117.931 30.3646 118.211C30.8099 118.491 31.3061 118.68 31.8247 118.767C32.3433 118.855 32.8741 118.839 33.3865 118.72C33.8988 118.602 34.3827 118.383 34.8102 118.076L37.1142 116.422C37.7354 115.971 38.4745 115.71 39.2415 115.671C40.0086 115.632 40.7704 115.816 41.4342 116.203C42.147 116.62 42.882 117.013 43.6392 117.38C45.7638 118.409 47.998 119.194 50.2992 119.72C51.0415 119.891 51.7191 120.271 52.2511 120.816C52.7832 121.361 53.1472 122.048 53.2998 122.794L53.9334 125.854C54.0421 126.368 54.2514 126.856 54.5491 127.289C54.8469 127.721 55.2272 128.091 55.6683 128.376C56.1094 128.662 56.6026 128.857 57.1194 128.951C57.6362 129.045 58.1666 129.037 58.68 128.925L71.28 126.18C72.3073 125.958 73.2051 125.338 73.7782 124.457C74.3512 123.576 74.5532 122.504 74.34 121.475L73.773 118.8C73.6139 118.041 73.6805 117.253 73.9645 116.531C74.2486 115.81 74.7377 115.188 75.3714 114.741C76.3255 114.072 77.2425 113.35 78.1182 112.581C78.7053 112.068 79.4308 111.74 80.2038 111.637C80.9768 111.535 81.7629 111.663 82.4634 112.005L84.3174 112.905C85.2696 113.364 86.3652 113.427 87.3633 113.078C88.3614 112.73 89.1803 112 89.64 111.047L95.3028 99.3259C95.7627 98.3733 95.8254 97.2769 95.477 96.2781C95.1287 95.2792 94.3978 94.4597 93.4452 93.9997L91.3104 92.9683C90.6163 92.6294 90.0348 92.0974 89.6357 91.4362C89.2366 90.7749 89.0368 90.0125 89.0604 89.2405C89.1252 86.69 88.8835 84.1409 88.3404 81.6481C88.179 80.8923 88.2422 80.1057 88.5224 79.3854C88.8026 78.6651 89.2875 78.0426 89.9172 77.5945L91.26 76.6261C92.1141 76.0127 92.6914 75.0868 92.8663 74.0499C93.0413 73.013 92.7997 71.949 92.1942 71.0893ZM63.8154 108.205C59.9843 109.445 55.8716 109.521 51.9972 108.424C48.1229 107.327 44.661 105.105 42.0492 102.04C39.4375 98.9754 37.7932 95.2049 37.3244 91.2055C36.8555 87.2062 37.5831 83.1576 39.4152 79.5717C41.2472 75.9859 44.1015 73.0238 47.6169 71.0601C51.1324 69.0965 55.1513 68.2193 59.1652 68.5396C63.1792 68.8599 67.0081 70.3633 70.1677 72.8597C73.3272 75.3561 75.6756 78.7333 76.9158 82.5643C77.7395 85.1081 78.0541 87.7892 77.8415 90.4546C77.6289 93.12 76.8934 95.7173 75.6768 98.0984C74.4603 100.479 72.7867 102.598 70.7514 104.332C68.7162 106.066 66.3593 107.382 63.8154 108.205Z" fill="#F0F0F0"/>
<path d="M117.09 109.944L118.582 114.75C118.66 115.002 118.788 115.237 118.957 115.44C119.126 115.642 119.334 115.809 119.569 115.931C119.803 116.052 120.06 116.126 120.323 116.148C120.586 116.17 120.851 116.139 121.102 116.057L121.853 115.818C122.216 115.701 122.605 115.691 122.974 115.79C123.342 115.888 123.675 116.09 123.932 116.372C124.137 116.598 124.351 116.817 124.574 117.029C125.279 117.704 126.055 118.301 126.889 118.809C127.21 119.009 127.467 119.296 127.631 119.636C127.795 119.976 127.859 120.356 127.816 120.732L127.717 121.632C127.689 121.894 127.712 122.159 127.787 122.411C127.861 122.664 127.985 122.9 128.151 123.105C128.317 123.309 128.522 123.479 128.754 123.604C128.986 123.729 129.241 123.807 129.503 123.833L134.525 124.33C135.048 124.382 135.57 124.225 135.978 123.894C136.385 123.563 136.646 123.084 136.703 122.562L136.784 121.821C136.824 121.441 136.973 121.081 137.213 120.784C137.452 120.487 137.773 120.266 138.136 120.147C138.526 120.027 138.912 119.884 139.295 119.72C139.65 119.575 140.04 119.536 140.418 119.609C140.795 119.681 141.143 119.862 141.419 120.129L141.743 120.44C142.125 120.805 142.637 121.004 143.166 120.992C143.695 120.98 144.198 120.759 144.563 120.377L148.091 116.687C148.457 116.305 148.655 115.793 148.643 115.264C148.632 114.736 148.41 114.234 148.028 113.868L147.6 113.452C147.327 113.193 147.133 112.861 147.042 112.496C146.951 112.131 146.966 111.747 147.085 111.39C147.413 110.428 147.635 109.434 147.746 108.425C147.789 108.045 147.941 107.685 148.184 107.39C148.427 107.094 148.751 106.875 149.116 106.76L149.384 106.674C149.885 106.513 150.302 106.162 150.545 105.696C150.788 105.23 150.837 104.686 150.682 104.184L149.189 99.3781C149.111 99.1257 148.984 98.8913 148.815 98.6885C148.645 98.4858 148.438 98.3187 148.203 98.1969C147.969 98.0752 147.712 98.0012 147.449 97.9793C147.186 97.9575 146.921 97.9881 146.669 98.0695L146.272 98.1973C145.915 98.314 145.532 98.3267 145.168 98.2339C144.804 98.1412 144.474 97.9468 144.216 97.6735C144.03 97.4731 143.837 97.2775 143.638 97.0867C142.746 96.2333 141.74 95.5065 140.65 94.9267C140.302 94.7393 140.017 94.4516 139.834 94.1009C139.65 93.7502 139.576 93.3526 139.621 92.9593C139.649 92.6972 139.625 92.4321 139.551 92.1792C139.476 91.9263 139.352 91.6908 139.186 91.4861C139.02 91.2814 138.814 91.1117 138.582 90.9867C138.35 90.8617 138.096 90.784 137.833 90.7579L132.813 90.2611C132.29 90.2092 131.768 90.3657 131.36 90.6968C130.952 91.0278 130.692 91.5065 130.635 92.0287L130.57 92.6065C130.528 92.9744 130.386 93.3236 130.158 93.6155C129.93 93.9074 129.626 94.1307 129.28 94.2607C129.16 94.3075 129.04 94.3561 128.92 94.4065C128.564 94.5517 128.174 94.5904 127.797 94.5179C127.42 94.4453 127.072 94.2647 126.796 93.9979L126.47 93.6865C126.088 93.3212 125.576 93.1227 125.047 93.1345C124.519 93.1463 124.017 93.3675 123.651 93.7495L120.121 97.4395C119.756 97.8218 119.557 98.3334 119.569 98.862C119.581 99.3905 119.802 99.8928 120.184 100.258L120.611 100.667C120.885 100.927 121.078 101.259 121.17 101.625C121.261 101.991 121.246 102.376 121.126 102.733C120.811 103.655 120.594 104.608 120.479 105.576C120.434 105.953 120.28 106.31 120.037 106.602C119.794 106.895 119.472 107.112 119.11 107.226L118.39 107.457C117.889 107.617 117.472 107.968 117.229 108.433C116.986 108.899 116.936 109.442 117.09 109.944ZM128.97 103.522C131.49 100.12 136.471 99.9829 139.111 103.243C139.987 104.346 140.474 105.708 140.499 107.116C140.523 108.525 140.082 109.902 139.244 111.035C136.715 114.435 131.744 114.574 129.103 111.314C128.227 110.21 127.74 108.849 127.715 107.44C127.691 106.032 128.132 104.654 128.97 103.522Z" fill="#F0F0F0"/>
<path d="M167.22 123.48H15.3C13.7095 123.48 12.42 124.77 12.42 126.36C12.42 127.951 13.7095 129.24 15.3 129.24H167.22C168.811 129.24 170.1 127.951 170.1 126.36C170.1 124.77 168.811 123.48 167.22 123.48Z" fill="#F0F0F0"/>
<path d="M167.22 123.48C167.984 123.48 168.716 123.784 169.257 124.324C169.797 124.864 170.1 125.596 170.1 126.36C170.1 127.124 169.797 127.856 169.257 128.397C168.716 128.937 167.984 129.24 167.22 129.24H15.3C14.5362 129.24 13.8037 128.937 13.2636 128.397C12.7235 127.856 12.42 127.124 12.42 126.36C12.42 125.596 12.7235 124.864 13.2636 124.324C13.8037 123.784 14.5362 123.48 15.3 123.48H167.22ZM167.22 122.22H15.3C14.202 122.22 13.149 122.656 12.3726 123.433C11.5962 124.209 11.16 125.262 11.16 126.36C11.16 127.458 11.5962 128.511 12.3726 129.288C13.149 130.064 14.202 130.5 15.3 130.5H167.22C168.318 130.5 169.371 130.064 170.147 129.288C170.924 128.511 171.36 127.458 171.36 126.36C171.36 125.262 170.924 124.209 170.147 123.433C169.371 122.656 168.318 122.22 167.22 122.22Z" fill="#4C3133"/>
<path d="M17.73 127.17C16.9662 127.17 16.2337 126.867 15.6936 126.327C15.1535 125.786 14.85 125.054 14.85 124.29C14.851 124.023 14.8886 123.758 14.9616 123.502C14.2616 123.585 13.6162 123.921 13.1478 124.448C12.6794 124.975 12.4204 125.655 12.42 126.36C12.42 127.124 12.7235 127.856 13.2636 128.397C13.8037 128.937 14.5362 129.24 15.3 129.24H167.22C167.846 129.24 168.455 129.035 168.955 128.658C169.454 128.281 169.817 127.751 169.988 127.149C169.876 127.162 169.763 127.169 169.65 127.17H17.73Z" fill="#E2E2E0"/>
<path d="M29.2501 142.74C29.1673 142.74 29.0855 142.723 29.0092 142.691C28.933 142.659 28.8638 142.612 28.8056 142.553C28.7475 142.494 28.7015 142.425 28.6702 142.348C28.639 142.271 28.6232 142.189 28.6237 142.107L28.7083 130.137C28.7092 129.97 28.776 129.811 28.8941 129.693C29.0121 129.576 29.1718 129.51 29.3383 129.51C29.421 129.511 29.5028 129.527 29.5791 129.559C29.6553 129.592 29.7245 129.638 29.7827 129.697C29.8409 129.756 29.8869 129.826 29.9181 129.902C29.9493 129.979 29.9651 130.061 29.9647 130.144L29.8801 142.114C29.8791 142.28 29.8123 142.44 29.6943 142.557C29.5762 142.674 29.4165 142.74 29.2501 142.74Z" fill="#4C3133"/>
<path d="M29.25 147.24C29.0829 147.24 28.9227 147.174 28.8045 147.056C28.6864 146.937 28.62 146.777 28.62 146.61V144.27C28.62 144.103 28.6864 143.943 28.8045 143.825C28.9227 143.707 29.0829 143.64 29.25 143.64C29.4171 143.64 29.5773 143.707 29.6955 143.825C29.8136 143.943 29.88 144.103 29.88 144.27V146.61C29.88 146.777 29.8136 146.937 29.6955 147.056C29.5773 147.174 29.4171 147.24 29.25 147.24Z" fill="#4C3133"/>
<path d="M35.73 145.8C35.5633 145.8 35.4033 145.734 35.2852 145.616C35.1671 145.498 35.1005 145.339 35.1 145.172L35.0604 130.142C35.0602 130.059 35.0763 129.977 35.1077 129.901C35.1391 129.824 35.1853 129.755 35.2437 129.696C35.302 129.637 35.3713 129.591 35.4477 129.559C35.524 129.527 35.6059 129.51 35.6886 129.51C35.8554 129.51 36.0154 129.576 36.1335 129.694C36.2516 129.812 36.3182 129.972 36.3186 130.138L36.3582 145.168C36.3585 145.251 36.3424 145.333 36.311 145.41C36.2795 145.486 36.2333 145.556 36.175 145.614C36.1166 145.673 36.0473 145.72 35.971 145.751C35.8946 145.783 35.8128 145.8 35.73 145.8Z" fill="#4C3133"/>
<path d="M35.73 149.22C35.5629 149.22 35.4026 149.154 35.2845 149.036C35.1664 148.917 35.1 148.757 35.1 148.59V147.33C35.1 147.163 35.1664 147.003 35.2845 146.885C35.4026 146.766 35.5629 146.7 35.73 146.7C35.8971 146.7 36.0573 146.766 36.1755 146.885C36.2936 147.003 36.36 147.163 36.36 147.33V148.59C36.36 148.757 36.2936 148.917 36.1755 149.036C36.0573 149.154 35.8971 149.22 35.73 149.22Z" fill="#4C3133"/>
<path d="M148.23 142.92C148.063 142.92 147.903 142.854 147.785 142.736C147.666 142.617 147.6 142.457 147.6 142.29V130.14C147.6 129.973 147.666 129.813 147.785 129.695C147.903 129.577 148.063 129.51 148.23 129.51C148.397 129.51 148.557 129.577 148.676 129.695C148.794 129.813 148.86 129.973 148.86 130.14V142.29C148.86 142.457 148.794 142.617 148.676 142.736C148.557 142.854 148.397 142.92 148.23 142.92Z" fill="#4C3133"/>
<path d="M148.23 147.06C148.063 147.06 147.903 146.994 147.785 146.876C147.666 146.757 147.6 146.597 147.6 146.43V144.99C147.6 144.823 147.666 144.663 147.785 144.545C147.903 144.426 148.063 144.36 148.23 144.36C148.397 144.36 148.557 144.426 148.676 144.545C148.794 144.663 148.86 144.823 148.86 144.99V146.43C148.86 146.597 148.794 146.757 148.676 146.876C148.557 146.994 148.397 147.06 148.23 147.06Z" fill="#4C3133"/>
<path d="M154.89 153.18C154.723 153.18 154.563 153.114 154.445 152.996C154.326 152.877 154.26 152.717 154.26 152.55V151.11C154.26 150.943 154.326 150.783 154.445 150.665C154.563 150.546 154.723 150.48 154.89 150.48C155.057 150.48 155.217 150.546 155.335 150.665C155.454 150.783 155.52 150.943 155.52 151.11V152.55C155.52 152.717 155.454 152.877 155.335 152.996C155.217 153.114 155.057 153.18 154.89 153.18Z" fill="#4C3133"/>
<path d="M154.89 149.04C154.724 149.04 154.564 148.974 154.446 148.857C154.328 148.739 154.261 148.58 154.26 148.414L154.177 130.504C154.176 130.337 154.241 130.177 154.358 130.058C154.475 129.94 154.634 129.872 154.8 129.87C154.966 129.871 155.126 129.937 155.244 130.054C155.362 130.171 155.429 130.33 155.43 130.497L155.513 148.407C155.513 148.489 155.498 148.571 155.466 148.648C155.435 148.725 155.389 148.794 155.331 148.853C155.273 148.912 155.204 148.959 155.127 148.991C155.051 149.023 154.969 149.04 154.886 149.04H154.89Z" fill="#4C3133"/>
<path d="M117.986 79.4701H64.7136C62.1269 79.4701 60.03 81.567 60.03 84.1537V117.446C60.03 120.033 62.1269 122.13 64.7136 122.13H117.986C120.573 122.13 122.67 120.033 122.67 117.446V84.1537C122.67 81.567 120.573 79.4701 117.986 79.4701Z" fill="white"/>
<path d="M117.986 122.76H64.7064C63.2989 122.757 61.95 122.196 60.9554 121.2C59.9607 120.204 59.4014 118.854 59.4 117.446V84.1465C59.4034 82.7389 59.9645 81.3901 60.9605 80.3954C61.9564 79.4008 63.3061 78.8415 64.7136 78.8401H117.994C119.401 78.8434 120.75 79.4045 121.745 80.4005C122.739 81.3965 123.299 82.7461 123.3 84.1537V117.454C123.297 118.861 122.736 120.21 121.74 121.205C120.744 122.199 119.394 122.759 117.986 122.76ZM64.7064 80.1001C63.6329 80.1029 62.6042 80.5312 61.8458 81.291C61.0874 82.0507 60.661 83.0801 60.66 84.1537V117.454C60.6629 118.527 61.0911 119.556 61.8509 120.314C62.6107 121.073 63.6401 121.499 64.7136 121.5H117.994C119.067 121.497 120.096 121.069 120.854 120.309C121.613 119.549 122.039 118.52 122.04 117.446V84.1465C122.037 83.0729 121.609 82.0443 120.849 81.2859C120.089 80.5274 119.06 80.101 117.986 80.1001H64.7064Z" fill="#4C3133"/>
<path d="M114.606 83.9053H67.9141C65.6475 83.9053 63.8101 85.7427 63.8101 88.0093V117.191C63.8101 119.457 65.6475 121.295 67.9141 121.295H114.606C116.873 121.295 118.71 119.457 118.71 117.191V88.0093C118.71 85.7427 116.873 83.9053 114.606 83.9053Z" fill="white"/>
<path d="M114.606 121.925H67.9141C66.659 121.923 65.4557 121.424 64.5682 120.537C63.6807 119.649 63.1815 118.446 63.1801 117.191V88.0093C63.1815 86.7542 63.6807 85.5509 64.5682 84.6634C65.4557 83.7759 66.659 83.2767 67.9141 83.2753H114.606C115.861 83.2767 117.064 83.7759 117.952 84.6634C118.839 85.5509 119.339 86.7542 119.34 88.0093V117.191C119.339 118.446 118.839 119.649 117.952 120.537C117.064 121.424 115.861 121.923 114.606 121.925ZM67.9141 84.5353C66.993 84.5362 66.1099 84.9025 65.4586 85.5538C64.8073 86.2051 64.441 87.0882 64.4401 88.0093V117.191C64.441 118.112 64.8073 118.995 65.4586 119.646C66.1099 120.298 66.993 120.664 67.9141 120.665H114.606C115.527 120.664 116.41 120.298 117.061 119.646C117.713 118.995 118.079 118.112 118.08 117.191V88.0093C118.079 87.0882 117.713 86.2051 117.061 85.5538C116.41 84.9025 115.527 84.5362 114.606 84.5353H67.9141Z" fill="#4C3133"/>
<path d="M113.195 89.4601H93.8053C92.6978 89.4601 91.8 90.3578 91.8 91.4653V95.0149C91.8 96.1223 92.6978 97.0201 93.8053 97.0201H113.195C114.302 97.0201 115.2 96.1223 115.2 95.0149V91.4653C115.2 90.3578 114.302 89.4601 113.195 89.4601Z" fill="#F0F0F0"/>
<path d="M113.693 100.8H95.8267C94.2987 100.8 93.0601 102.039 93.0601 103.567V112.433C93.0601 113.961 94.2987 115.2 95.8267 115.2H113.693C115.221 115.2 116.46 113.961 116.46 112.433V103.567C116.46 102.039 115.221 100.8 113.693 100.8Z" fill="#F0F0F0"/>
<path d="M57.2401 118.53H124.56C125.204 118.531 125.822 118.787 126.278 119.242C126.733 119.698 126.99 120.316 126.99 120.96V122.85H54.8101V120.96C54.8105 120.316 55.0667 119.698 55.5223 119.242C55.9779 118.787 56.5957 118.531 57.2401 118.53Z" fill="#F0F0F0"/>
<path d="M126.99 123.48H54.8101C54.643 123.48 54.4827 123.414 54.3646 123.296C54.2464 123.177 54.1801 123.017 54.1801 122.85V120.96C54.1801 120.149 54.5024 119.37 55.0763 118.796C55.6502 118.223 56.4285 117.9 57.2401 117.9H124.56C125.372 117.9 126.15 118.223 126.724 118.796C127.298 119.37 127.62 120.149 127.62 120.96V122.85C127.62 123.017 127.554 123.177 127.436 123.296C127.317 123.414 127.157 123.48 126.99 123.48ZM55.4401 122.22H126.36V120.96C126.36 120.483 126.17 120.025 125.833 119.687C125.495 119.35 125.037 119.16 124.56 119.16H57.2401C56.7627 119.16 56.3048 119.35 55.9673 119.687C55.6297 120.025 55.4401 120.483 55.4401 120.96V122.22Z" fill="#4C3133"/>
<path d="M43.2145 133.546C42.3377 133.544 41.4753 133.322 40.7071 132.9C39.1555 132.052 36.5527 129.62 36.5491 122.85C36.5491 122.683 36.6154 122.523 36.7336 122.405C36.8517 122.287 37.012 122.22 37.1791 122.22C37.3462 122.22 37.5064 122.287 37.6245 122.405C37.7427 122.523 37.8091 122.683 37.8091 122.85C37.8091 127.32 39.0889 130.579 41.3119 131.793C41.9529 132.142 42.6773 132.31 43.4069 132.279C44.1365 132.247 44.8436 132.017 45.4519 131.613C47.0071 130.615 47.8477 128.77 47.7019 126.675C47.5219 124.155 48.1357 122.186 49.5163 120.84C51.7483 118.667 55.1413 118.966 55.2763 118.978C55.359 118.986 55.4394 119.01 55.5128 119.049C55.5863 119.088 55.6514 119.141 55.7044 119.205C55.7573 119.269 55.7972 119.343 55.8216 119.422C55.8461 119.502 55.8547 119.585 55.8469 119.668C55.8391 119.75 55.815 119.831 55.7762 119.904C55.7373 119.978 55.6844 120.043 55.6203 120.096C55.5563 120.149 55.4825 120.189 55.4031 120.213C55.3237 120.238 55.2402 120.246 55.1575 120.238C55.1287 120.238 52.1893 119.988 50.3839 121.754C49.2841 122.834 48.8017 124.454 48.9439 126.594C49.1239 129.154 48.0655 131.429 46.1179 132.678C45.2527 133.239 44.2452 133.54 43.2145 133.546Z" fill="#4C3133"/>
<path d="M36.8101 114.93C38.5287 114.93 40.1769 115.613 41.3921 116.828C42.6074 118.043 43.2901 119.691 43.2901 121.41V122.85H30.3301V121.41C30.3301 119.691 31.0128 118.043 32.228 116.828C33.4433 115.613 35.0915 114.93 36.8101 114.93Z" fill="#FFD900"/>
<path d="M43.2901 123.48H30.3301C30.163 123.48 30.0027 123.414 29.8846 123.296C29.7664 123.177 29.7001 123.017 29.7001 122.85V121.41C29.7001 119.524 30.4492 117.716 31.7825 116.383C33.1159 115.049 34.9244 114.3 36.8101 114.3C38.6958 114.3 40.5042 115.049 41.8376 116.383C43.171 117.716 43.9201 119.524 43.9201 121.41V122.85C43.9201 123.017 43.8537 123.177 43.7355 123.296C43.6174 123.414 43.4572 123.48 43.2901 123.48ZM30.9601 122.22H42.6601V121.41C42.6601 119.859 42.0437 118.371 40.9466 117.273C39.8496 116.176 38.3616 115.56 36.8101 115.56C35.2586 115.56 33.7706 116.176 32.6735 117.273C31.5764 118.371 30.9601 119.859 30.9601 121.41V122.22Z" fill="#4C3133"/>
<path d="M43.0327 120.24H30.5875C30.4204 120.24 30.2602 120.174 30.142 120.056C30.0239 119.937 29.9575 119.777 29.9575 119.61C29.9575 119.443 30.0239 119.283 30.142 119.165C30.2602 119.046 30.4204 118.98 30.5875 118.98H43.0327C43.1998 118.98 43.3601 119.046 43.4782 119.165C43.5963 119.283 43.6627 119.443 43.6627 119.61C43.6627 119.777 43.5963 119.937 43.4782 120.056C43.3601 120.174 43.1998 120.24 43.0327 120.24Z" fill="#4C3133"/>
<path d="M36.8101 120.06C36.643 120.06 36.4827 119.994 36.3646 119.876C36.2464 119.757 36.1801 119.597 36.1801 119.43V114.93C36.1801 114.763 36.2464 114.603 36.3646 114.485C36.4827 114.366 36.643 114.3 36.8101 114.3C36.9771 114.3 37.1374 114.366 37.2555 114.485C37.3737 114.603 37.4401 114.763 37.4401 114.93V119.43C37.4401 119.597 37.3737 119.757 37.2555 119.876C37.1374 119.994 36.9771 120.06 36.8101 120.06Z" fill="#4C3133"/>
<path d="M79.1461 88.29H70.9741C69.9999 88.29 69.2101 89.0798 69.2101 90.054V98.226C69.2101 99.2003 69.9999 99.99 70.9741 99.99H79.1461C80.1203 99.99 80.9101 99.2003 80.9101 98.226V90.054C80.9101 89.0798 80.1203 88.29 79.1461 88.29Z" fill="#F0F0F0"/>
<path d="M126.029 42.8401C117.234 39.1249 91.1538 42.8167 73.1664 65.3131C59.0832 82.9279 68.0904 96.7357 77.0382 105.523C85.5504 113.881 108.243 124.456 113.51 116.937C120.154 107.46 96.7428 91.4239 99.522 82.6201C101.977 74.8279 123.12 72.2737 129.928 64.1719C138.251 54.2665 132.044 45.3835 126.029 42.8401Z" fill="#C5E6F1"/>
<path d="M118.202 41.5801C121.442 41.5801 124.142 42.0373 126.029 42.8401C132.044 45.3835 138.251 54.2665 129.928 64.1719C123.12 72.2737 101.977 74.8279 99.5221 82.6201C96.7429 91.4401 120.154 107.46 113.51 116.944C112.25 118.744 109.976 119.511 107.14 119.511C98.1631 119.511 83.5057 111.881 77.0383 105.53C68.0905 96.7429 59.0833 82.9351 73.1665 65.3203C87.2839 47.6569 106.38 41.5801 118.202 41.5801ZM118.202 40.3201C105.899 40.3201 86.4649 46.6633 72.1801 64.5265C65.6479 72.6985 63.3115 80.9389 65.2375 89.0209C66.6379 94.8907 70.2091 100.584 76.1545 106.421C79.4575 109.661 84.8575 113.261 90.5977 116.03C96.9211 119.09 102.794 120.764 107.138 120.764C110.606 120.764 113.098 119.72 114.539 117.661C116.449 114.934 116.438 111.586 114.503 107.426C112.914 104.006 110.227 100.433 107.629 96.9715C103.711 91.7515 99.6589 86.3515 100.723 82.9927C101.844 79.4323 108.394 76.7755 114.728 74.2069C121.001 71.6617 127.489 69.0301 130.889 64.9819C135.536 59.4541 135.614 54.5635 134.861 51.4333C133.848 47.2231 130.572 43.3945 126.517 41.6809C124.418 40.7935 121.541 40.3237 118.201 40.3237L118.202 40.3201Z" fill="#4C3133"/>
<path d="M81.9 103.003C72.9522 94.2157 63.945 80.4079 78.0282 62.7931C83.1471 56.3542 89.4331 50.9371 96.5574 46.8253C88.5366 50.5495 80.2296 56.4823 73.1682 65.3131C59.085 82.9279 68.0922 96.7357 77.04 105.523C85.5522 113.881 108.245 124.456 113.512 116.937L113.537 116.899C104.792 117.9 88.7508 109.732 81.9 103.003Z" fill="#81C4D4"/>
<path d="M126.558 48.0601C129.258 49.7233 130.016 54.3601 128.975 55.6975C127.935 57.0349 124.893 55.3501 120.193 57.4345C115.493 59.5189 107.593 60.2875 107.899 55.4671C108.205 50.6467 110.182 49.4389 115.565 49.9069C120.949 50.3749 123.507 46.1863 126.558 48.0601Z" fill="#81C4D4"/>
<path d="M126.794 46.08H126.763L125.264 46.0314C125.025 46.0236 124.799 45.9212 124.636 45.7468C124.473 45.5725 124.386 45.3404 124.394 45.1017C124.401 44.8631 124.504 44.6373 124.678 44.4741C124.853 44.3108 125.085 44.2236 125.323 44.2314L126.823 44.28C127.061 44.2839 127.289 44.3824 127.455 44.5538C127.621 44.7253 127.712 44.9558 127.708 45.1944C127.704 45.4331 127.606 45.6605 127.434 45.8266C127.263 45.9927 127.033 46.0839 126.794 46.08Z" fill="#4C3133"/>
<path d="M113.774 49.0302C113.573 49.0303 113.377 48.9626 113.218 48.838C113.06 48.7134 112.948 48.5392 112.9 48.3433C112.852 48.1474 112.872 47.9411 112.955 47.7575C113.039 47.574 113.181 47.4238 113.36 47.331L114.692 46.6416C114.797 46.5873 114.912 46.5541 115.03 46.544C115.148 46.534 115.266 46.5472 115.379 46.583C115.491 46.6187 115.596 46.6764 115.686 46.7525C115.777 46.8287 115.851 46.9219 115.906 47.0268C115.96 47.1318 115.993 47.2464 116.003 47.3642C116.013 47.482 116 47.6006 115.964 47.7132C115.929 47.8259 115.871 47.9304 115.795 48.0208C115.719 48.1112 115.625 48.1857 115.52 48.24L114.188 48.9294C114.06 48.9957 113.918 49.0303 113.774 49.0302Z" fill="#4C3133"/>
<path d="M125.96 53.7445C126.754 53.7445 127.397 53.1014 127.397 52.3081C127.397 51.5148 126.754 50.8717 125.96 50.8717C125.167 50.8717 124.524 51.5148 124.524 52.3081C124.524 53.1014 125.167 53.7445 125.96 53.7445Z" fill="#4C3133"/>
<path d="M115.474 55.4148C116.267 55.4148 116.91 54.7717 116.91 53.9784C116.91 53.1851 116.267 52.542 115.474 52.542C114.68 52.542 114.037 53.1851 114.037 53.9784C114.037 54.7717 114.68 55.4148 115.474 55.4148Z" fill="#4C3133"/>
<path d="M110.012 38.6839C104.929 38.6605 97.3747 41.3209 93.6487 43.6771C92.0053 44.7157 89.2566 46.6363 87.435 47.3185C85.6134 48.0007 83.1906 47.6695 82.2744 45.9541C81.7344 44.9443 81.855 43.6771 82.3698 42.6565C82.8846 41.6359 83.7469 40.8313 84.6757 40.1635C87.0197 38.4837 89.8169 37.5519 92.7 37.4905C93.4759 37.4761 94.5144 37.3105 94.5864 36.5401C94.6422 35.9425 94.005 35.5141 93.42 35.3899C92.835 35.2657 92.1888 35.2873 91.692 34.9525C91.0584 34.5241 90.8947 33.6061 91.1719 32.8933C91.4491 32.1805 92.0719 31.6333 92.7505 31.2967C101.443 27.0181 110.012 38.6839 110.012 38.6839Z" fill="#C5E6F1"/>
<path d="M85.599 48.2743C84.024 48.2743 82.4652 47.6479 81.72 46.2493C81.1188 45.1243 81.1512 43.6735 81.8064 42.3721C82.296 41.4019 83.1132 40.5109 84.3066 39.6523C86.7547 37.9004 89.6742 36.9274 92.6838 36.8605C93.4956 36.8461 93.9438 36.6571 93.9546 36.4807C93.9672 36.3331 93.672 36.0883 93.2832 36.0055C93.1356 35.9749 92.9772 35.9533 92.8098 35.9299C92.34 35.8669 91.809 35.7949 91.3356 35.4745C90.5004 34.9111 90.1764 33.7033 90.5796 32.6647C90.9464 31.8077 91.6197 31.1183 92.4678 30.7315C96.2478 28.8721 100.588 29.6137 105.014 32.8789C107.087 34.4314 108.939 36.2583 110.52 38.3095C110.589 38.4035 110.63 38.5146 110.639 38.6307C110.649 38.7467 110.626 38.8631 110.574 38.967C110.521 39.0709 110.441 39.1583 110.342 39.2195C110.243 39.2807 110.129 39.3134 110.012 39.3139H109.948C105.098 39.3139 97.659 41.8861 93.9852 44.2099C93.6576 44.4169 93.2832 44.6617 92.8818 44.9299C91.2312 46.0099 89.1756 47.3473 87.6618 47.9161C87.0009 48.1567 86.3024 48.2779 85.599 48.2743ZM96.723 30.9943C95.4396 30.9923 94.1733 31.2887 93.024 31.8601C92.4617 32.1121 92.0101 32.5599 91.7532 33.1201C91.5642 33.6079 91.692 34.2001 92.0394 34.4287C92.2698 34.5835 92.5974 34.6285 92.9772 34.6807C93.1572 34.7041 93.3516 34.7311 93.5442 34.7707C94.4442 34.9615 95.2974 35.6491 95.2092 36.5977C95.157 37.1485 94.7628 38.0791 92.7072 38.1187C89.9528 38.1812 87.2814 39.0739 85.0428 40.6801C84.0186 41.4181 83.3274 42.1597 82.9314 42.9445C82.467 43.8679 82.4292 44.9083 82.8306 45.6625C83.5758 47.0575 85.6872 47.3059 87.2154 46.7425C88.6032 46.2223 90.594 44.9245 92.1942 43.8823C92.601 43.6159 92.979 43.3693 93.312 43.1623C96.912 40.8853 103.666 38.4715 108.725 38.1223C106.893 35.9605 102.06 30.9943 96.723 30.9943Z" fill="#4C3133"/>
<path d="M60.03 116.73C60.03 116.73 63.09 105.21 75.33 107.19C75.33 107.19 78.03 95.6701 91.35 96.0301C104.67 96.3901 105.39 109.17 105.39 109.17C105.39 109.17 116.73 108.81 117.45 118.53L60.03 118.35V116.73Z" fill="white"/>
<path d="M117.45 119.16L60.0301 118.98C59.8633 118.98 59.7035 118.913 59.5857 118.795C59.468 118.677 59.4019 118.517 59.4019 118.35V116.73C59.4018 116.675 59.4091 116.621 59.4235 116.568C60.0739 114.446 61.1617 112.484 62.6167 110.808C64.7515 108.36 68.5963 105.66 74.8801 106.486C75.5291 104.512 76.5406 102.677 77.8627 101.074C80.0875 98.3737 84.2311 95.2057 91.3627 95.4001C98.5375 95.5945 102.145 99.3259 103.909 102.42C104.972 104.312 105.666 106.389 105.955 108.54C107.808 108.606 109.637 108.971 111.373 109.62C115.443 111.186 117.761 114.252 118.075 118.487C118.081 118.573 118.069 118.659 118.041 118.74C118.012 118.822 117.967 118.896 117.909 118.959C117.85 119.022 117.779 119.073 117.7 119.107C117.621 119.142 117.536 119.16 117.45 119.16ZM60.6601 117.72L116.752 117.9C116.294 114.507 114.349 112.124 110.957 110.808C109.183 110.146 107.304 109.804 105.41 109.8C105.246 109.805 105.087 109.745 104.966 109.634C104.845 109.523 104.772 109.37 104.762 109.206C104.542 107.026 103.872 104.915 102.794 103.007C100.454 98.9371 96.6043 96.8023 91.3339 96.6601C86.0635 96.5179 81.8389 98.2585 78.8653 101.835C77.5201 103.445 76.5251 105.318 75.9439 107.334C75.9068 107.49 75.8119 107.627 75.6782 107.715C75.5446 107.804 75.3822 107.839 75.2239 107.813C70.3945 107.032 66.4813 108.304 63.5905 111.593C62.2718 113.12 61.2751 114.898 60.6601 116.82V117.72Z" fill="#4C3133"/>
<path d="M132.21 121.669C132.21 121.669 129.897 112.965 120.647 114.46C120.647 114.46 118.607 105.754 108.54 106.026C98.4727 106.297 97.9309 115.956 97.9309 115.956C97.9309 115.956 89.3611 115.684 88.8157 123.03L132.21 122.893V121.669Z" fill="white"/>
<path d="M88.8156 123.66C88.7293 123.66 88.6438 123.642 88.5645 123.608C88.4853 123.574 88.4139 123.523 88.3548 123.46C88.296 123.396 88.2507 123.321 88.222 123.239C88.1932 123.157 88.1814 123.07 88.1874 122.983C88.6824 116.302 95.3316 115.445 97.3674 115.34C97.6005 113.739 98.1258 112.193 98.9172 110.781C100.269 108.407 103.034 105.545 108.527 105.397C113.99 105.251 117.157 107.678 118.858 109.741C119.84 110.935 120.599 112.296 121.097 113.76C125.834 113.175 128.747 115.225 130.372 117.09C131.487 118.373 132.32 119.875 132.818 121.5C132.833 121.553 132.84 121.607 132.84 121.662V122.886C132.84 123.053 132.774 123.213 132.656 123.331C132.538 123.449 132.379 123.516 132.212 123.516L88.8192 123.66H88.8156ZM97.7688 116.584C96.705 116.584 90.4068 116.822 89.523 122.398L131.58 122.265V121.757C131.324 120.886 128.966 113.751 120.748 115.081C120.589 115.109 120.427 115.075 120.293 114.986C120.159 114.897 120.064 114.761 120.028 114.604C119.591 113.1 118.847 111.704 117.842 110.502C115.634 107.843 112.5 106.56 108.558 106.655C104.616 106.751 101.741 108.36 100.008 111.406C99.2139 112.818 98.7206 114.38 98.559 115.992C98.5502 116.156 98.4774 116.31 98.3562 116.421C98.2351 116.532 98.0753 116.591 97.911 116.586L97.7688 116.584Z" fill="#4C3133"/>
<path d="M70.11 109.35C71.6012 109.35 72.81 108.141 72.81 106.65C72.81 105.159 71.6012 103.95 70.11 103.95C68.6189 103.95 67.41 105.159 67.41 106.65C67.41 108.141 68.6189 109.35 70.11 109.35Z" fill="white"/>
<path d="M70.11 109.98C69.4514 109.98 68.8076 109.785 68.26 109.419C67.7124 109.053 67.2856 108.533 67.0335 107.924C66.7815 107.316 66.7155 106.646 66.844 106C66.9725 105.354 67.2897 104.761 67.7554 104.295C68.2211 103.83 68.8144 103.513 69.4604 103.384C70.1063 103.256 70.7759 103.322 71.3844 103.574C71.9928 103.826 72.5129 104.252 72.8788 104.8C73.2447 105.348 73.44 105.991 73.44 106.65C73.4391 107.533 73.0879 108.379 72.4636 109.004C71.8394 109.628 70.9929 109.979 70.11 109.98ZM70.11 104.58C69.7006 104.58 69.3004 104.701 68.96 104.929C68.6196 105.156 68.3543 105.48 68.1976 105.858C68.0409 106.236 67.9999 106.652 68.0798 107.054C68.1597 107.455 68.3568 107.824 68.6463 108.114C68.9358 108.403 69.3047 108.6 69.7062 108.68C70.1077 108.76 70.5239 108.719 70.9022 108.563C71.2804 108.406 71.6037 108.141 71.8312 107.8C72.0586 107.46 72.18 107.059 72.18 106.65C72.1796 106.101 71.9613 105.575 71.5732 105.187C71.1851 104.799 70.6589 104.581 70.11 104.58Z" fill="#4C3133"/>
<path d="M57.4201 72.4501C60.4521 72.4501 62.9101 69.9921 62.9101 66.9601C62.9101 63.928 60.4521 61.4701 57.4201 61.4701C54.388 61.4701 51.9301 63.928 51.9301 66.9601C51.9301 69.9921 54.388 72.4501 57.4201 72.4501Z" fill="white"/>
<path d="M57.4201 73.0801C56.2096 73.0801 55.0264 72.7212 54.02 72.0487C53.0135 71.3762 52.2291 70.4204 51.7659 69.3021C51.3027 68.1838 51.1815 66.9533 51.4176 65.7661C51.6538 64.579 52.2367 63.4885 53.0926 62.6326C53.9485 61.7767 55.0389 61.1938 56.2261 60.9577C57.4133 60.7215 58.6438 60.8427 59.7621 61.306C60.8804 61.7692 61.8362 62.5536 62.5086 63.56C63.1811 64.5664 63.5401 65.7497 63.5401 66.9601C63.5401 68.5832 62.8953 70.1399 61.7475 71.2876C60.5998 72.4353 59.0432 73.0801 57.4201 73.0801ZM57.4201 62.1001C56.4588 62.1001 55.5192 62.3851 54.72 62.9191C53.9208 63.4532 53.2978 64.2122 52.93 65.1002C52.5622 65.9883 52.4659 66.9655 52.6534 67.9082C52.841 68.851 53.3038 69.7169 53.9835 70.3966C54.6632 71.0763 55.5292 71.5392 56.4719 71.7267C57.4147 71.9142 58.3918 71.818 59.2799 71.4501C60.1679 71.0823 60.927 70.4594 61.461 69.6602C61.995 68.8609 62.2801 67.9213 62.2801 66.9601C62.2801 65.6711 61.768 64.435 60.8566 63.5236C59.9452 62.6121 58.709 62.1001 57.4201 62.1001Z" fill="#4C3133"/>
<path d="M142.29 86.4902C143.831 86.4902 145.08 85.241 145.08 83.7002C145.08 82.1593 143.831 80.9102 142.29 80.9102C140.749 80.9102 139.5 82.1593 139.5 83.7002C139.5 85.241 140.749 86.4902 142.29 86.4902Z" fill="white"/>
<path d="M142.29 87.1202C141.614 87.1202 140.952 86.9196 140.39 86.5438C139.828 86.168 139.389 85.6339 139.13 85.0089C138.871 84.384 138.804 83.6964 138.936 83.0329C139.068 82.3695 139.393 81.7601 139.872 81.2818C140.35 80.8036 140.959 80.4778 141.623 80.3459C142.286 80.2139 142.974 80.2816 143.599 80.5405C144.224 80.7993 144.758 81.2377 145.134 81.8001C145.509 82.3625 145.71 83.0237 145.71 83.7002C145.71 84.6072 145.35 85.4771 144.708 86.1185C144.067 86.7598 143.197 87.1202 142.29 87.1202ZM142.29 81.5402C141.863 81.5402 141.445 81.6668 141.09 81.9042C140.735 82.1415 140.458 82.4789 140.294 82.8736C140.131 83.2682 140.088 83.7026 140.172 84.1216C140.255 84.5405 140.461 84.9254 140.763 85.2275C141.065 85.5296 141.45 85.7353 141.869 85.8186C142.288 85.902 142.722 85.8592 143.117 85.6957C143.511 85.5322 143.849 85.2554 144.086 84.9002C144.323 84.545 144.45 84.1274 144.45 83.7002C144.45 83.1273 144.222 82.5779 143.817 82.1728C143.412 81.7677 142.863 81.5402 142.29 81.5402Z" fill="#4C3133"/>
<path d="M127.62 118.89C129.36 118.89 130.77 117.48 130.77 115.74C130.77 114 129.36 112.59 127.62 112.59C125.88 112.59 124.47 114 124.47 115.74C124.47 117.48 125.88 118.89 127.62 118.89Z" fill="white"/>
<path d="M127.62 119.52C126.872 119.52 126.142 119.298 125.52 118.883C124.898 118.468 124.414 117.877 124.128 117.187C123.842 116.496 123.767 115.736 123.913 115.003C124.059 114.269 124.419 113.596 124.947 113.067C125.476 112.539 126.149 112.179 126.883 112.033C127.616 111.887 128.376 111.962 129.067 112.248C129.757 112.534 130.348 113.018 130.763 113.64C131.178 114.262 131.4 114.992 131.4 115.74C131.4 116.743 131.002 117.704 130.293 118.413C129.584 119.122 128.623 119.52 127.62 119.52ZM127.62 113.22C127.122 113.22 126.634 113.368 126.22 113.645C125.806 113.922 125.483 114.315 125.292 114.776C125.101 115.236 125.051 115.743 125.149 116.232C125.246 116.721 125.486 117.17 125.838 117.522C126.191 117.874 126.64 118.114 127.128 118.212C127.617 118.309 128.124 118.259 128.584 118.068C129.045 117.878 129.438 117.555 129.715 117.14C129.992 116.726 130.14 116.238 130.14 115.74C130.14 115.072 129.875 114.431 129.402 113.958C128.929 113.486 128.288 113.22 127.62 113.22Z" fill="#4C3133"/>
</svg>
