<svg width="18" height="18" viewBox="0 0 18 18" fill="none" xmlns="http://www.w3.org/2000/svg">
<path d="M15.6375 9C15.6356 9.14858 15.5757 9.29052 15.4706 9.39559C15.3656 9.50067 15.2236 9.56055 15.075 9.5625H8.95505V12C8.9609 12.0894 8.93852 12.1784 8.89108 12.2543C8.84364 12.3303 8.77352 12.3895 8.69064 12.4235C8.60775 12.4575 8.51629 12.4645 8.42915 12.4437C8.34202 12.4229 8.26363 12.3753 8.20505 12.3075L5.20505 9.3075C5.12627 9.22752 5.08211 9.11976 5.08211 9.0075C5.08211 8.89523 5.12627 8.78747 5.20505 8.70749L8.20505 5.7075C8.26286 5.64098 8.33981 5.59395 8.42538 5.57285C8.51095 5.55176 8.60094 5.55762 8.68305 5.58964C8.76515 5.62166 8.83536 5.67828 8.88405 5.75173C8.93274 5.82519 8.95754 5.9119 8.95505 5.99999V8.42249H15.075C15.1499 8.42347 15.2238 8.43919 15.2926 8.46874C15.3614 8.49829 15.4237 8.54111 15.4759 8.59473C15.5282 8.64836 15.5693 8.71175 15.597 8.78129C15.6248 8.85082 15.6385 8.92514 15.6375 9ZM2.92505 3.63C2.77586 3.63 2.63279 3.68926 2.5273 3.79475C2.42181 3.90024 2.36255 4.04331 2.36255 4.1925V13.8075C2.36255 13.9567 2.42181 14.0998 2.5273 14.2052C2.63279 14.3107 2.77586 14.37 2.92505 14.37C3.07423 14.37 3.21731 14.3107 3.3228 14.2052C3.42829 14.0998 3.48755 13.9567 3.48755 13.8075V4.1925C3.48856 4.11835 3.4747 4.04475 3.44679 3.97605C3.41888 3.90735 3.37748 3.84493 3.32504 3.7925C3.27261 3.74006 3.2102 3.69867 3.1415 3.67076C3.07279 3.64285 2.9992 3.62899 2.92505 3.63Z" fill="#99A1B7"/>
</svg>
