<svg width="30" height="30" viewBox="0 0 30 30" fill="none" xmlns="http://www.w3.org/2000/svg">
<rect x="0.5" y="0.5" width="29" height="29" rx="7.5" fill="white"/>
<rect x="0.5" y="0.5" width="29" height="29" rx="7.5" stroke="#F1F1F4"/>
<path d="M21.6375 15C21.6356 15.1486 21.5757 15.2905 21.4706 15.3956C21.3656 15.5007 21.2236 15.5606 21.075 15.5625H14.955V18C14.9609 18.0894 14.9385 18.1784 14.8911 18.2543C14.8436 18.3303 14.7735 18.3895 14.6906 18.4235C14.6078 18.4575 14.5163 18.4645 14.4292 18.4437C14.342 18.4229 14.2636 18.3753 14.205 18.3075L11.205 15.3075C11.1263 15.2275 11.0821 15.1198 11.0821 15.0075C11.0821 14.8952 11.1263 14.7875 11.205 14.7075L14.205 11.7075C14.2629 11.641 14.3398 11.594 14.4254 11.5729C14.5109 11.5518 14.6009 11.5576 14.683 11.5896C14.7652 11.6217 14.8354 11.6783 14.884 11.7517C14.9327 11.8252 14.9575 11.9119 14.955 12V14.4225H21.075C21.1499 14.4235 21.2238 14.4392 21.2926 14.4687C21.3614 14.4983 21.4237 14.5411 21.4759 14.5947C21.5282 14.6484 21.5693 14.7118 21.597 14.7813C21.6248 14.8508 21.6385 14.9251 21.6375 15ZM8.92505 9.63C8.77586 9.63 8.63279 9.68926 8.5273 9.79475C8.42181 9.90024 8.36255 10.0433 8.36255 10.1925V19.8075C8.36255 19.9567 8.42181 20.0998 8.5273 20.2052C8.63279 20.3107 8.77586 20.37 8.92505 20.37C9.07423 20.37 9.21731 20.3107 9.3228 20.2052C9.42829 20.0998 9.48755 19.9567 9.48755 19.8075V10.1925C9.48856 10.1183 9.4747 10.0447 9.44679 9.97605C9.41888 9.90735 9.37748 9.84493 9.32504 9.7925C9.27261 9.74006 9.2102 9.69867 9.1415 9.67076C9.07279 9.64285 8.9992 9.62899 8.92505 9.63Z" fill="#99A1B7"/>
</svg>
