<svg width="20" height="20" viewBox="0 0 20 20" fill="none" xmlns="http://www.w3.org/2000/svg">
<path opacity="0.1" d="M16.5 9.29161C16.5 13.3187 13.2354 16.5833 9.20829 16.5833C5.18122 16.5833 1.91663 13.3187 1.91663 9.29161C1.91663 5.26453 5.18122 1.99994 9.20829 1.99994C13.2354 1.99994 16.5 5.26453 16.5 9.29161Z" fill="#F2F2F2"/>
<path d="M9.22534 1.72528C13.3674 1.72543 16.7253 5.08324 16.7253 9.22528C16.7253 11.0411 16.0795 12.7061 15.0056 14.0036L18.0593 17.0573C18.3359 17.3339 18.3359 17.7826 18.0593 18.0593C17.7827 18.3358 17.334 18.3359 17.0574 18.0593L14.0037 15.0056C12.7061 16.0794 11.0412 16.7252 9.22534 16.7253C5.08332 16.7253 1.72552 13.3673 1.72534 9.22528C1.72534 5.08315 5.08321 1.72528 9.22534 1.72528ZM9.22534 3.11493C5.8509 3.11493 3.11499 5.85084 3.11499 9.22528C3.11517 12.5996 5.85101 15.3347 9.22534 15.3347C12.5995 15.3345 15.3345 12.5995 15.3347 9.22528C15.3347 5.85093 12.5997 3.11508 9.22534 3.11493Z" fill="#F2F2F2"/>
</svg>
