<svg width="16" height="16" viewBox="0 0 16 16" fill="none" xmlns="http://www.w3.org/2000/svg">
<path opacity="0.1" d="M13.2 7.43325C13.2 10.6549 10.5883 13.2666 7.36666 13.2666C4.145 13.2666 1.53333 10.6549 1.53333 7.43325C1.53333 4.21159 4.145 1.59991 7.36666 1.59991C10.5883 1.59991 13.2 4.21159 13.2 7.43325Z" fill="#99A1B7"/>
<path d="M7.37964 1.37958C10.6932 1.37958 13.3794 4.06605 13.3796 7.37958C13.3796 8.83224 12.8627 10.1638 12.0037 11.2018L14.447 13.6462C14.6683 13.8675 14.6683 14.2257 14.447 14.447C14.2257 14.6682 13.8675 14.6682 13.6462 14.447L11.2019 12.0036C10.1639 12.8626 8.83228 13.3796 7.37964 13.3796C4.06613 13.3793 1.37964 10.6931 1.37964 7.37958C1.37985 4.06619 4.06625 1.37981 7.37964 1.37958ZM7.37964 2.49188C4.68041 2.49211 2.49215 4.68034 2.49194 7.37958C2.49194 10.079 4.68028 12.268 7.37964 12.2682C10.0792 12.2682 12.2683 10.0791 12.2683 7.37958C12.2681 4.6802 10.0791 2.49188 7.37964 2.49188Z" fill="#99A1B7"/>
</svg>
