<svg width="20" height="20" viewBox="0 0 20 20" fill="none" xmlns="http://www.w3.org/2000/svg">
<g clip-path="url(#clip0_1_10618)">
<path opacity="0.1" d="M15.8695 1.66699C16.6709 1.66953 17.4386 1.98901 18.0052 2.55567C18.5719 3.12236 18.8914 3.88999 18.8939 4.69141V10.4531C18.8834 11.1149 18.6567 11.7552 18.2474 12.2754C17.8382 12.7956 16.4364 13.167 15.7953 13.333V8.53223C15.7953 7.34804 15.8335 7.49968 15.3207 6.20801C15.2527 6.14002 15.1815 6.07579 15.1097 6.0127C15.5505 6.66041 15.7924 7.42997 15.7924 8.22461V13.2559C15.7924 14.2987 15.3774 15.2987 14.64 16.0361C13.9026 16.7736 12.9026 17.1885 11.8597 17.1885H10.7435C10.6953 17.1873 10.6477 17.1986 10.6049 17.2207C10.562 17.2429 10.5254 17.2754 10.4984 17.3154L9.73669 18.3897C9.58063 18.6174 9.37089 18.8035 9.12634 18.9316C8.88173 19.0598 8.60952 19.1263 8.33337 19.125C8.05709 19.1264 7.78415 19.0599 7.53943 18.9316C7.29489 18.8034 7.08511 18.6174 6.92908 18.3897L6.16833 17.3154C6.14208 17.275 6.10563 17.242 6.06287 17.2197C6.01993 17.1975 5.97152 17.1866 5.92322 17.1885H4.89099C4.37115 17.194 3.8553 17.0964 3.37341 16.9014C2.89147 16.7063 2.453 16.4174 2.08337 16.0518C1.71373 15.686 1.42035 15.2504 1.22009 14.7705C1.01985 14.2907 0.916352 13.7758 0.916382 13.2559V8.22461C0.916352 7.70475 1.01993 7.18974 1.22009 6.70996C1.42034 6.23012 1.71376 5.79441 2.08337 5.42871C2.45299 5.06303 2.89146 4.77422 3.37341 4.5791C3.85531 4.38403 4.37114 4.28644 4.89099 4.29199H5.1449C5.33303 3.57622 5.64342 2.67543 6.04919 2.34473C6.58814 1.90552 7.26215 1.66615 7.9574 1.66699H15.8695Z" fill="#99A1B7"/>
<path d="M14.5438 13.813V8.19558C14.5416 7.48521 14.2584 6.80457 13.7561 6.30226C13.2538 5.79995 12.5731 5.51676 11.8628 5.51452H4.20261V4.79106C4.20259 3.74581 4.61606 2.74299 5.35277 2.0015C6.08948 1.26001 7.0896 0.840057 8.13483 0.833313H15.1481C16.1978 0.833313 17.2045 1.25029 17.9467 1.99251C18.6889 2.73473 19.1059 3.7414 19.1059 4.79106V9.89783C19.1037 10.9387 18.6916 11.9368 17.9588 12.676C17.226 13.4151 16.2315 13.8359 15.1907 13.8471L14.5438 13.813ZM11.8628 4.23783C12.9124 4.23783 13.9191 4.6548 14.6613 5.39702C15.4035 6.13925 15.8205 7.14592 15.8205 8.19558V12.4512C16.3886 12.3041 16.8928 11.9747 17.2556 11.5134C17.6185 11.0522 17.82 10.4846 17.8292 9.89783V4.79106C17.8269 4.08069 17.5438 3.40006 17.0414 2.89775C16.5391 2.39544 15.8585 2.11225 15.1481 2.11001H8.13483C7.51856 2.10925 6.92096 2.3215 6.44323 2.71082C5.9655 3.10014 5.637 3.6426 5.51335 4.24634L11.8628 4.23783ZM8.35612 19.1666C8.07805 19.168 7.80388 19.1012 7.55758 18.9721C7.31128 18.843 7.10036 18.6556 6.94325 18.4261L6.17723 17.3452C6.1507 17.3043 6.11399 17.2711 6.07071 17.2487C6.02744 17.2263 5.97909 17.2156 5.93041 17.2175H4.89203C4.36872 17.2232 3.84949 17.125 3.36439 16.9286C2.87929 16.7322 2.43796 16.4416 2.06593 16.0735C1.6939 15.7054 1.39856 15.2672 1.19701 14.7843C0.995457 14.3013 0.891693 13.7831 0.891724 13.2598V8.19558C0.891693 7.67224 0.995457 7.15409 1.19701 6.67112C1.39856 6.18815 1.6939 5.74994 2.06593 5.38187C2.43796 5.0138 2.87929 4.72316 3.36439 4.52679C3.84949 4.33042 4.36872 4.2322 4.89203 4.23783H11.9053C12.955 4.23783 13.9617 4.6548 14.7039 5.39702C15.4461 6.13925 15.8631 7.14592 15.8631 8.19558V13.2598C15.8631 14.3095 15.4461 15.3161 14.7039 16.0583C13.9617 16.8006 12.955 17.2175 11.9053 17.2175H10.7818C10.7333 17.2164 10.6852 17.2275 10.6421 17.2498C10.599 17.2721 10.5621 17.3049 10.535 17.3452L9.769 18.4261C9.61189 18.6556 9.40096 18.843 9.15466 18.9721C8.90836 19.1012 8.63419 19.168 8.35612 19.1666ZM4.89203 5.51452C4.53669 5.51002 4.18398 5.57598 3.85429 5.7086C3.52459 5.84121 3.22445 6.03785 2.97119 6.28715C2.71794 6.53644 2.5166 6.83345 2.37881 7.16102C2.24102 7.48858 2.16951 7.84021 2.16842 8.19558V13.2598C2.1661 13.6169 2.23516 13.9709 2.37154 14.301C2.50791 14.631 2.70886 14.9305 2.96257 15.1819C3.21629 15.4332 3.51766 15.6313 3.84899 15.7646C4.18033 15.8978 4.53495 15.9635 4.89203 15.9579H5.93041C6.18441 15.9566 6.4349 16.0172 6.66028 16.1343C6.88567 16.2515 7.07917 16.4217 7.22412 16.6303L7.98163 17.6601C8.02384 17.7203 8.07988 17.7695 8.14504 17.8036C8.21021 17.8377 8.28259 17.8556 8.35612 17.8559C8.42965 17.8556 8.50204 17.8377 8.5672 17.8036C8.63237 17.7695 8.68841 17.7203 8.73062 17.6601L9.48812 16.5792C9.63863 16.38 9.83457 16.2197 10.0596 16.1116C10.2847 16.0035 10.5323 15.9508 10.7818 15.9579H11.8628C12.5738 15.9579 13.2558 15.6754 13.7586 15.1726C14.2614 14.6698 14.5438 13.9879 14.5438 13.2768V8.19558C14.5416 7.48521 14.2584 6.80457 13.7561 6.30226C13.2538 5.79995 12.5731 5.51676 11.8628 5.51452H4.89203ZM5.38568 9.99997C5.22745 9.99997 5.07276 10.0469 4.94119 10.1348C4.80962 10.2227 4.70708 10.3477 4.64652 10.4939C4.58597 10.6401 4.57012 10.8009 4.601 10.9561C4.63187 11.1113 4.70806 11.2539 4.81995 11.3658C4.93185 11.4776 5.0744 11.5538 5.2296 11.5847C5.3848 11.6156 5.54566 11.5997 5.69185 11.5392C5.83805 11.4786 5.963 11.3761 6.05091 11.2445C6.13882 11.113 6.18574 10.9583 6.18574 10.8C6.18353 10.5885 6.09853 10.3863 5.94896 10.2367C5.7994 10.0872 5.59719 10.0022 5.38568 9.99997ZM8.36463 9.99997C8.20795 9.99696 8.05384 10.04 7.92141 10.1238C7.78899 10.2076 7.6841 10.3285 7.61975 10.4714C7.5554 10.6142 7.53443 10.7729 7.55945 10.9276C7.58446 11.0823 7.65436 11.2262 7.76046 11.3416C7.86656 11.4569 8.0042 11.5385 8.15628 11.5763C8.30836 11.6141 8.4682 11.6064 8.61595 11.5542C8.76369 11.5019 8.89285 11.4075 8.98737 11.2825C9.0819 11.1575 9.13764 11.0075 9.14767 10.8511C9.15339 10.7435 9.13755 10.6359 9.10108 10.5345C9.06461 10.4331 9.00824 10.34 8.93529 10.2607C8.86234 10.1814 8.77428 10.1175 8.67629 10.0727C8.57829 10.028 8.47233 10.0032 8.36463 9.99997ZM11.3351 9.99997C11.1768 9.99997 11.0222 10.0469 10.8906 10.1348C10.759 10.2227 10.6565 10.3477 10.5959 10.4939C10.5354 10.6401 10.5195 10.8009 10.5504 10.9561C10.5813 11.1113 10.6575 11.2539 10.7693 11.3658C10.8812 11.4776 11.0238 11.5538 11.179 11.5847C11.3342 11.6156 11.4951 11.5997 11.6412 11.5392C11.7874 11.4786 11.9124 11.3761 12.0003 11.2445C12.0882 11.113 12.1351 10.9583 12.1351 10.8C12.1329 10.5885 12.0479 10.3863 11.8984 10.2367C11.7488 10.0872 11.5466 10.0022 11.3351 9.99997Z" fill="#99A1B7"/>
</g>
<defs>
<clipPath id="clip0_1_10618">
<rect width="20" height="20" fill="white"/>
</clipPath>
</defs>
</svg>