<svg width="16" height="16" viewBox="0 0 16 16" fill="none" xmlns="http://www.w3.org/2000/svg">
<path d="M10.09 4.80773V7.43447H1.90276C1.75175 7.43447 1.60692 7.49446 1.50014 7.60124C1.39336 7.70802 1.33337 7.85285 1.33337 8.00386C1.33337 8.15487 1.39336 8.29969 1.50014 8.40647C1.60692 8.51325 1.75175 8.57324 1.90276 8.57324H10.09V11.1924C10.0892 11.264 10.1099 11.3343 10.1496 11.3939C10.1892 11.4536 10.2458 11.5 10.3122 11.527C10.3785 11.5541 10.4515 11.5605 10.5215 11.5455C10.5916 11.5305 10.6555 11.4947 10.705 11.4429L14.5602 8.25438C14.5939 8.22118 14.6207 8.18159 14.639 8.13793C14.6573 8.09427 14.6667 8.0474 14.6667 8.00006C14.6667 7.95272 14.6573 7.90585 14.639 7.86219C14.6207 7.81853 14.5939 7.77894 14.5602 7.74574L10.705 4.5572C10.6555 4.50537 10.5916 4.46963 10.5215 4.45463C10.4515 4.43963 10.3785 4.44606 10.3122 4.47309C10.2458 4.50012 10.1892 4.54649 10.1496 4.60618C10.1099 4.66586 10.0892 4.73609 10.09 4.80773Z" fill="#4B5675"/>
</svg>
