<svg width="20" height="20" viewBox="0 0 20 20" fill="none" xmlns="http://www.w3.org/2000/svg">
<path opacity="0.1" d="M16.3414 1.11646C17.0155 1.11646 17.6626 1.38492 18.1393 1.86157C18.6157 2.33819 18.8834 2.98454 18.8834 3.65845C18.8834 4.16113 18.734 4.65259 18.4547 5.07056C18.4466 5.08274 18.4367 5.09369 18.4283 5.10571C18.616 5.66944 18.7164 6.26407 18.7164 6.86938V13.2805C18.7164 14.762 18.1282 16.1832 17.0807 17.2307C16.0332 18.2782 14.6119 18.8665 13.1305 18.8665H6.71936C5.23792 18.8665 3.8167 18.2782 2.76917 17.2307C1.72167 16.1832 1.13342 14.7619 1.13342 13.2805V6.86938C1.13342 5.38795 1.72163 3.96673 2.76917 2.91919C3.8167 1.87166 5.23793 1.28345 6.71936 1.28345H13.1305C13.7353 1.28345 14.3299 1.38318 14.8932 1.57056C14.9053 1.56217 14.9171 1.55335 14.9293 1.54517C15.3472 1.26593 15.8388 1.1165 16.3414 1.11646Z" fill="#F2F2F2"/>
<path d="M11.5244 1.25781C11.6959 1.25792 11.8601 1.32611 11.9814 1.44727C12.1029 1.5687 12.1719 1.73354 12.1719 1.90527C12.1719 2.07703 12.1029 2.24183 11.9814 2.36328C11.8601 2.48447 11.6959 2.55262 11.5244 2.55273H6.00684C5.03711 2.56395 4.1096 2.95394 3.42383 3.63965C2.73805 4.32543 2.34813 5.25288 2.33691 6.22266V13.9941C2.34825 14.9637 2.73822 15.8905 3.42383 16.5762C4.10961 17.262 5.03706 17.6519 6.00684 17.6631H13.7773C14.7471 17.6519 15.6746 17.262 16.3604 16.5762C17.0459 15.8905 17.4359 14.9637 17.4473 13.9941V8.8125C17.4474 8.64107 17.5156 8.47678 17.6367 8.35547C17.7581 8.23406 17.923 8.16508 18.0947 8.16504C18.2665 8.16504 18.4313 8.23402 18.5527 8.35547C18.674 8.47679 18.7421 8.641 18.7422 8.8125V13.9941C18.7308 15.3072 18.2039 16.5636 17.2754 17.4922C16.3468 18.4206 15.0904 18.9477 13.7773 18.959H6.00684C4.69374 18.9477 3.43741 18.4206 2.50879 17.4922C1.58024 16.5636 1.05339 15.3072 1.04199 13.9941V6.22266C1.05327 4.90938 1.58013 3.65327 2.50879 2.72461C3.43744 1.79603 4.69362 1.26909 6.00684 1.25781H11.5244ZM13.3457 13.5615C13.5174 13.5615 13.6823 13.6297 13.8037 13.751C13.9251 13.8724 13.9931 14.0373 13.9932 14.209C13.9932 14.3807 13.9252 14.5455 13.8037 14.667C13.6823 14.7884 13.5175 14.8564 13.3457 14.8564H5.84277C5.67104 14.8564 5.50621 14.7884 5.38477 14.667C5.26332 14.5455 5.19531 14.3807 5.19531 14.209C5.19537 14.0373 5.26337 13.8724 5.38477 13.751C5.50619 13.6297 5.67114 13.5615 5.84277 13.5615H13.3457ZM9.89258 10.1074C10.0641 10.1075 10.2283 10.1765 10.3496 10.2979C10.4711 10.4193 10.54 10.5841 10.54 10.7559C10.5399 10.9274 10.4709 11.0915 10.3496 11.2129C10.2283 11.3342 10.0642 11.4032 9.89258 11.4033H5.84277C5.67102 11.4033 5.50621 11.3343 5.38477 11.2129C5.2635 11.0916 5.19543 10.9274 5.19531 10.7559C5.19531 10.5841 5.26337 10.4193 5.38477 10.2979C5.50621 10.1764 5.67102 10.1074 5.84277 10.1074H9.89258ZM16.3682 1.04199C17.0551 1.04203 17.7135 1.31504 18.1992 1.80078C18.685 2.28652 18.958 2.9449 18.958 3.63184C18.958 4.14416 18.8061 4.64531 18.5215 5.07129C18.2369 5.49715 17.8326 5.82937 17.3594 6.02539C16.8861 6.22144 16.3648 6.2728 15.8623 6.17285C15.3599 6.07286 14.8983 5.82606 14.5361 5.46387C14.1739 5.10166 13.9271 4.64007 13.8271 4.1377C13.7272 3.63521 13.7786 3.11395 13.9746 2.64062C14.1706 2.1674 14.5029 1.76314 14.9287 1.47852C15.3547 1.19388 15.8558 1.04199 16.3682 1.04199ZM16.3682 2.33691C16.0247 2.33691 15.695 2.47303 15.4521 2.71582C15.2093 2.95867 15.0733 3.2884 15.0732 3.63184C15.0732 3.88797 15.1487 4.13859 15.291 4.35156C15.4333 4.56452 15.6355 4.73107 15.8721 4.8291C16.1087 4.92713 16.3699 4.95232 16.6211 4.90234C16.8722 4.85232 17.1031 4.7289 17.2842 4.54785C17.4652 4.36674 17.5887 4.13593 17.6387 3.88477C17.6886 3.63361 17.6624 3.37332 17.5645 3.13672C17.4664 2.90006 17.3009 2.697 17.0879 2.55469C16.8749 2.4124 16.6243 2.33694 16.3682 2.33691Z" fill="#F2F2F2"/>
</svg>
